<?xml version="1.0" standalone="no"?>
<!DOCTYPE svg PUBLIC "-//W3C//DTD SVG 20010904//EN"
 "http://www.w3.org/TR/2001/REC-SVG-20010904/DTD/svg10.dtd">
<svg version="1.0" xmlns="http://www.w3.org/2000/svg"
 width="433.000000pt" height="158.000000pt" viewBox="0 0 433.000000 158.000000"
 preserveAspectRatio="xMidYMid meet">

<g transform="translate(0.000000,158.000000) scale(0.100000,-0.100000)"
fill="#000000" stroke="none">
<path d="M700 796 l0 -346 80 0 80 0 0 130 0 130 33 0 c31 0 34 -4 100 -130
l68 -130 47 0 c26 0 104 -3 173 -7 l126 -6 17 77 17 76 103 0 103 0 7 -37 c3
-21 11 -55 16 -76 l11 -37 84 0 c47 0 85 3 85 7 0 4 -46 159 -102 345 l-101
338 -102 0 -101 0 -99 -330 c-54 -181 -101 -330 -105 -330 -7 0 -160 255 -160
267 0 4 20 20 43 34 56 34 81 85 81 164 -1 70 -20 114 -66 148 -57 42 -95 50
-270 55 l-168 4 0 -346z m292 214 c54 -25 62 -114 14 -159 -18 -17 -41 -24
-85 -28 l-61 -6 0 108 0 108 53 -6 c28 -3 64 -11 79 -17z m618 -292 c0 -16
-10 -18 -70 -18 -38 0 -70 2 -70 4 0 7 61 261 67 281 5 13 18 -26 40 -115 18
-74 33 -143 33 -152z"/>
<path d="M2067 1126 c-140 -52 -210 -168 -210 -346 0 -167 48 -269 151 -322
97 -49 242 -46 360 7 l52 24 0 170 0 171 -130 0 c-144 0 -136 5 -124 -72 6
-37 8 -38 50 -38 l44 0 0 -80 c0 -72 -2 -80 -22 -91 -34 -19 -111 -16 -143 5
-81 53 -99 300 -30 407 45 70 134 88 221 44 l49 -25 39 39 c22 22 35 44 32 50
-4 6 -31 23 -59 38 -44 22 -68 27 -147 30 -64 2 -107 -1 -133 -11z"/>
<path d="M2687 1126 c-127 -47 -190 -163 -190 -346 0 -126 24 -200 85 -266 62
-67 116 -88 223 -88 107 0 161 21 223 88 63 68 85 140 85 271 0 91 -4 120 -23
169 -26 69 -77 129 -134 159 -52 27 -211 35 -269 13z m196 -126 c45 -39 62
-99 61 -220 -1 -115 -16 -175 -55 -211 -75 -70 -179 -32 -209 77 -17 59 -17
213 0 273 7 26 26 59 45 78 28 28 40 33 79 33 36 0 52 -6 79 -30z"/>
<path d="M3220 790 l0 -350 71 0 72 0 -5 243 c-3 133 -9 251 -13 262 -5 11 -5
17 -2 14 4 -3 49 -120 101 -260 l94 -254 106 -3 106 -3 0 351 0 350 -75 0 -75
0 0 -167 c0 -93 5 -208 10 -258 5 -49 8 -90 7 -92 -2 -1 -34 80 -71 180 -38
100 -82 217 -98 260 l-30 77 -99 0 -99 0 0 -350z"/>
<path d="M146 803 c-55 -181 -101 -336 -104 -345 -4 -16 5 -18 81 -18 l85 0
17 75 16 75 103 0 103 0 7 -37 c3 -21 11 -55 16 -75 l11 -38 84 0 c47 0 85 3
85 7 0 4 -46 159 -102 345 l-101 338 -102 0 -101 0 -98 -327z m264 -85 c0 -16
-10 -18 -70 -18 -38 0 -70 2 -70 4 0 7 61 261 67 281 5 13 18 -26 40 -115 18
-74 33 -143 33 -152z"/>
<path d="M3880 785 l0 -345 210 0 210 0 0 55 0 55 -130 0 -130 0 0 95 0 95
105 0 105 0 0 55 0 55 -105 0 -105 0 0 85 0 85 119 0 c132 0 122 -5 136 73 l6
37 -211 0 -210 0 0 -345z"/>
</g>
</svg>
