<svg width="100" height="118" viewBox="0 0 100 118" fill="none" xmlns="http://www.w3.org/2000/svg">
<path d="M0 68C0 40.3858 22.3858 18 50 18V18C77.6142 18 100 40.3858 100 68V68C100 95.6142 77.6142 118 50 118V118C22.3858 118 0 95.6142 0 68V68Z" fill="#F9F5F1"/>
<path d="M64.816 103.008C64.24 103.008 63.728 102.784 63.28 102.336C63.152 102.144 63.024 101.952 62.896 101.76C62.768 101.568 62.64 101.376 62.512 101.184C61.936 99.84 61.648 98.432 61.648 96.96L61.36 94.656C61.168 93.76 61.008 92.864 60.88 91.968C60.752 91.072 60.528 90.208 60.208 89.376L59.632 87.744C59.632 87.616 59.6 87.488 59.536 87.36C59.536 87.232 59.504 87.104 59.44 86.976L58 81.888C57.936 81.76 57.872 81.6 57.808 81.408C57.808 81.216 57.744 81.056 57.616 80.928C57.424 80.544 57.264 80.16 57.136 79.776C57.072 79.328 56.976 78.88 56.848 78.432C56.784 78.112 56.72 77.824 56.656 77.568C56.592 77.248 56.496 76.928 56.368 76.608C56.24 76.224 56.112 76 55.984 75.936C55.856 75.808 55.568 75.808 55.12 75.936C54.8 76 54.448 76.064 54.064 76.128C53.744 76.128 53.424 76.192 53.104 76.32C52.848 76.384 52.528 76.448 52.144 76.512C51.824 76.512 51.504 76.544 51.184 76.608L49.84 76.896C49.52 76.96 49.168 77.056 48.784 77.184C48.464 77.248 48.144 77.28 47.824 77.28L46.096 77.568C45.584 77.696 45.04 77.824 44.464 77.952C43.888 78.08 43.344 78.208 42.832 78.336C41.296 78.72 39.76 79.008 38.224 79.2C37.712 79.328 37.424 79.552 37.36 79.872C37.296 79.872 37.264 79.904 37.264 79.968C36.88 80.992 36.432 82.016 35.92 83.04C35.472 84 34.992 84.992 34.48 86.016C34.352 86.272 34.224 86.528 34.096 86.784C34.032 86.976 33.936 87.2 33.808 87.456C33.744 87.584 33.68 87.744 33.616 87.936C33.552 88.064 33.488 88.192 33.424 88.32C33.04 88.768 32.848 89.312 32.848 89.952C32.784 90.336 32.656 90.72 32.464 91.104C32.272 91.424 32.08 91.744 31.888 92.064C31.824 92.256 31.696 92.352 31.504 92.352C31.248 92.416 30.992 92.512 30.736 92.64C30.48 92.768 30.192 92.896 29.872 93.024C29.68 93.088 29.488 93.088 29.296 93.024C29.168 92.96 29.008 92.896 28.816 92.832C28.688 92.704 28.56 92.64 28.432 92.64C27.728 92.576 27.216 92.16 26.896 91.392C26.384 90.368 26.032 89.344 25.84 88.32C25.776 88.064 25.776 87.84 25.84 87.648C25.968 87.456 26.064 87.264 26.128 87.072C26.512 86.816 26.736 86.528 26.8 86.208V86.112C26.8 85.28 26.96 84.512 27.28 83.808C27.664 83.04 27.984 82.304 28.24 81.6C28.368 81.216 28.528 80.832 28.72 80.448C28.912 80.064 29.104 79.68 29.296 79.296C29.552 78.848 29.744 78.432 29.872 78.048C30.064 77.6 30.224 77.152 30.352 76.704C30.544 76.192 30.544 75.712 30.352 75.264C30.224 74.88 30.16 74.528 30.16 74.208C30.16 73.824 30.192 73.44 30.256 73.056C30.256 72.352 30.512 71.744 31.024 71.232C31.28 70.912 31.536 70.656 31.792 70.464C32.112 70.208 32.4 69.952 32.656 69.696C33.232 69.12 33.68 68.352 34 67.392C34.256 66.56 34.448 65.728 34.576 64.896C34.768 64 34.96 63.136 35.152 62.304C35.28 61.472 35.408 60.672 35.536 59.904C35.728 59.072 35.92 58.272 36.112 57.504C36.176 57.184 36.24 56.896 36.304 56.64C36.432 56.32 36.528 56.032 36.592 55.776C36.784 55.264 36.976 54.784 37.168 54.336C37.36 53.824 37.488 53.312 37.552 52.8C37.68 52.544 37.68 52.32 37.552 52.128C37.488 51.808 37.488 51.52 37.552 51.264C37.68 51.008 37.776 50.752 37.84 50.496C38.032 50.048 38.16 49.6 38.224 49.152C38.352 48.704 38.512 48.256 38.704 47.808C39.024 46.976 39.28 46.304 39.472 45.792C39.728 45.216 39.952 44.576 40.144 43.872C40.272 43.488 40.4 43.136 40.528 42.816C40.72 42.432 40.848 42.048 40.912 41.664C41.104 41.088 41.264 40.512 41.392 39.936C41.52 39.296 41.584 38.688 41.584 38.112C41.712 37.6 41.84 37.248 41.968 37.056C42.288 36.416 42.672 35.872 43.12 35.424C43.632 34.976 44.112 34.528 44.56 34.08C44.88 33.888 45.2 33.76 45.52 33.696C45.84 33.568 46.16 33.6 46.48 33.792C46.736 33.92 46.896 33.984 46.96 33.984C47.536 33.92 48.016 34.048 48.4 34.368C48.784 34.688 49.104 35.072 49.36 35.52C49.488 35.648 49.584 35.808 49.648 36C49.712 36.192 49.776 36.352 49.84 36.48C50.16 36.992 50.32 37.504 50.32 38.016C50.32 38.272 50.352 38.56 50.416 38.88C50.48 39.136 50.544 39.424 50.608 39.744C50.8 40.128 51.088 40.32 51.472 40.32C51.536 40.256 51.6 40.256 51.664 40.32C51.728 40.384 51.76 40.448 51.76 40.512C52.08 40.896 52.176 41.312 52.048 41.76C51.92 42.272 51.888 42.784 51.952 43.296C52.08 43.744 52.208 44.224 52.336 44.736C52.592 45.376 52.848 46.016 53.104 46.656C53.36 47.296 53.616 47.936 53.872 48.576C54.192 49.28 54.512 49.984 54.832 50.688C55.152 51.392 55.44 52.096 55.696 52.8C56.016 53.696 56.336 54.592 56.656 55.488C57.04 56.384 57.456 57.28 57.904 58.176L58.192 59.232C58.256 59.488 58.32 59.744 58.384 60C58.512 60.256 58.608 60.512 58.672 60.768C58.8 60.96 58.896 61.152 58.96 61.344C59.088 61.536 59.216 61.696 59.344 61.824C59.664 62.272 59.856 62.752 59.92 63.264C60.112 63.904 60.4 64.48 60.784 64.992C60.912 65.184 61.104 65.28 61.36 65.28C62.32 65.152 63.28 65.056 64.24 64.992C65.2 64.864 66.16 64.672 67.12 64.416C67.824 64.224 68.496 64.128 69.136 64.128C70.352 64.128 71.472 64.544 72.496 65.376C73.712 66.336 74.352 67.552 74.416 69.024C74.416 69.344 74.448 69.6 74.512 69.792C74.512 70.24 74.384 70.592 74.128 70.848C74.064 71.04 73.936 71.232 73.744 71.424C73.616 71.616 73.488 71.808 73.36 72C73.232 72.256 73.104 72.448 72.976 72.576L72.4 73.056C72.336 73.184 72.24 73.344 72.112 73.536C71.984 73.664 71.824 73.76 71.632 73.824C71.376 73.888 71.12 73.984 70.864 74.112C70.608 74.176 70.32 74.208 70 74.208C68.848 74.336 67.824 74.304 66.928 74.112H65.392C65.264 74.112 65.072 74.176 64.816 74.304C64.56 74.432 64.432 74.592 64.432 74.784V75.168C64.624 75.744 64.752 76.352 64.816 76.992C64.944 77.568 65.136 78.112 65.392 78.624C65.392 78.88 65.456 79.136 65.584 79.392C65.904 79.968 66.16 80.576 66.352 81.216C66.544 81.792 66.704 82.4 66.832 83.04C66.832 83.168 66.896 83.424 67.024 83.808C67.216 84.256 67.376 84.736 67.504 85.248C67.632 85.696 67.728 86.176 67.792 86.688C67.792 87.072 67.888 87.424 68.08 87.744C68.336 88.32 68.528 88.896 68.656 89.472C68.784 90.048 68.88 90.656 68.944 91.296C69.008 91.36 69.04 91.488 69.04 91.68C69.04 91.808 69.072 91.936 69.136 92.064C69.456 92.768 69.68 93.536 69.808 94.368C69.936 95.136 70.096 95.904 70.288 96.672C70.416 97.056 70.48 97.44 70.48 97.824C70.544 98.272 70.576 98.72 70.576 99.168C70.576 99.488 70.48 99.84 70.288 100.224C70.096 100.416 70 100.512 70 100.512C69.616 100.576 69.392 100.8 69.328 101.184L69.04 101.76C68.912 102.016 68.72 102.176 68.464 102.24C68.208 102.24 67.984 102.336 67.792 102.528C67.536 102.784 67.184 102.912 66.736 102.912C66.48 102.912 66.16 102.912 65.776 102.912C65.456 102.912 65.136 102.944 64.816 103.008ZM41.68 68.16C42.064 68.096 42.448 68.032 42.832 67.968C43.28 67.904 43.76 67.84 44.272 67.776C44.592 67.712 45.008 67.648 45.52 67.584C46.032 67.52 46.512 67.456 46.96 67.392C47.408 67.264 47.856 67.2 48.304 67.2C48.752 67.136 49.2 67.072 49.648 67.008C50.032 66.88 50.416 66.816 50.8 66.816C51.184 66.752 51.568 66.688 51.952 66.624C52.528 66.496 52.752 66.176 52.624 65.664C52.56 65.152 52.432 64.64 52.24 64.128C52.112 63.552 51.824 63.072 51.376 62.688C51.248 62.56 51.184 62.368 51.184 62.112V61.824C51.056 61.312 50.896 60.832 50.704 60.384C50.576 59.872 50.416 59.392 50.224 58.944C50.096 58.432 49.936 57.984 49.744 57.6C49.616 57.152 49.456 56.704 49.264 56.256L48.112 52.8C47.92 52.352 47.728 51.904 47.536 51.456C47.408 51.008 47.28 50.56 47.152 50.112L46.864 49.728H46.576L46.384 50.016C46.064 50.976 45.68 51.936 45.232 52.896C44.848 53.856 44.496 54.88 44.176 55.968C44.176 56.096 44.144 56.256 44.08 56.448C44.016 56.64 43.952 56.832 43.888 57.024C43.632 57.664 43.376 58.368 43.12 59.136C42.928 59.904 42.768 60.672 42.64 61.44C42.576 61.888 42.512 62.336 42.448 62.784C42.384 63.168 42.288 63.584 42.16 64.032L41.296 67.776C41.232 67.84 41.264 67.936 41.392 68.064C41.52 68.128 41.616 68.16 41.68 68.16Z" fill="black"/>
</svg>
