<svg width="346" height="156" viewBox="0 0 346 156" fill="none" xmlns="http://www.w3.org/2000/svg">
<rect width="346" height="156" fill="#F9F5F1"/>
<path d="M44.5 107.4C44.46 107.4 44.32 107.36 44.08 107.28C43.96 107.24 43.82 107.1 43.66 106.86C43.62 106.74 43.58 106.62 43.54 106.5C43.5 106.38 43.48 106.26 43.48 106.14C43.36 105.54 43.3 104.94 43.3 104.34V100.2C43.3 99.84 43.26 99.48 43.18 99.12C43.1 98.76 43.02 98.4 42.94 98.04C42.94 97.96 42.9 97.84 42.82 97.68C42.78 97.56 42.72 97.44 42.64 97.32C42.56 97.16 42.48 97.02 42.4 96.9C42.24 96.62 42.12 96.32 42.04 96C41.96 95.68 41.9 95.38 41.86 95.1C41.82 94.66 41.82 94.24 41.86 93.84C41.94 93.6 42 93.38 42.04 93.18C42.08 92.94 42.14 92.72 42.22 92.52C42.34 92.2 42.44 91.88 42.52 91.56C42.6 91.2 42.7 90.84 42.82 90.48L43.72 87.54C44 86.7 44.36 85.84 44.8 84.96C45.24 84.12 45.66 83.18 46.06 82.14C46.14 81.9 46.24 81.64 46.36 81.36C46.52 80.92 46.68 80.5 46.84 80.1C47.04 79.66 47.22 79.24 47.38 78.84L48.28 76.32C48.36 76.16 48.42 76 48.46 75.84C48.5 75.68 48.54 75.52 48.58 75.36C48.9 74.56 49.22 73.8 49.54 73.08C49.78 72.6 49.94 72.08 50.02 71.52C50.1 70.96 50.1 70.4 50.02 69.84C49.98 69.6 49.94 69.36 49.9 69.12C49.9 68.84 49.9 68.58 49.9 68.34C49.9 68.22 49.86 68.12 49.78 68.04C49.74 67.92 49.74 67.8 49.78 67.68C49.82 67.6 49.86 67.52 49.9 67.44C49.98 67.36 50.04 67.28 50.08 67.2C50.2 66.76 50.38 66.38 50.62 66.06C50.9 65.7 51.2 65.38 51.52 65.1C51.68 64.94 51.9 64.82 52.18 64.74C52.34 64.66 52.48 64.58 52.6 64.5C52.76 64.42 52.9 64.32 53.02 64.2C53.22 64.04 53.44 63.94 53.68 63.9C54 63.86 54.34 63.74 54.7 63.54C55.02 63.34 55.38 63.28 55.78 63.36H56.32C56.6 63.36 56.9 63.46 57.22 63.66C57.3 63.7 57.38 63.76 57.46 63.84C57.58 63.88 57.7 63.94 57.82 64.02C58.14 64.26 58.3 64.56 58.3 64.92C58.3 65.2 58.32 65.46 58.36 65.7C58.44 65.94 58.5 66.2 58.54 66.48C58.62 66.72 58.62 66.98 58.54 67.26C58.5 67.34 58.48 67.44 58.48 67.56C58.48 67.64 58.46 67.72 58.42 67.8C58.42 67.96 58.4 68.12 58.36 68.28C58.36 68.44 58.34 68.6 58.3 68.76C58.18 69.04 58.22 69.32 58.42 69.6C58.74 70.12 59.02 70.66 59.26 71.22C59.54 71.78 59.82 72.34 60.1 72.9L61.18 74.82C61.5 75.34 61.82 75.96 62.14 76.68C62.22 76.8 62.28 76.92 62.32 77.04C62.4 77.16 62.48 77.28 62.56 77.4C62.68 77.6 62.78 77.82 62.86 78.06C62.98 78.3 63.1 78.54 63.22 78.78C63.54 79.38 63.8 80 64 80.64C64.24 81.24 64.48 81.88 64.72 82.56C64.72 82.6 64.72 82.64 64.72 82.68C64.76 82.68 64.78 82.7 64.78 82.74C64.82 83.02 65.02 83.16 65.38 83.16C65.5 83.12 65.62 83.1 65.74 83.1C65.9 83.1 66.04 83.1 66.16 83.1C66.6 83.1 66.98 83.18 67.3 83.34C67.5 83.38 67.7 83.5 67.9 83.7C68.22 84.02 68.44 84.28 68.56 84.48C68.68 84.68 68.76 84.98 68.8 85.38C68.96 86.14 68.8 86.8 68.32 87.36L67.96 87.66C67.88 87.74 67.78 87.82 67.66 87.9C67.54 87.94 67.44 88 67.36 88.08C67.16 88.24 67.04 88.36 67 88.44C67 88.52 67.06 88.7 67.18 88.98L68.08 91.14C68.44 91.94 68.8 92.74 69.16 93.54C69.56 94.34 69.96 95.14 70.36 95.94C70.52 96.22 70.64 96.5 70.72 96.78C70.84 97.06 70.92 97.36 70.96 97.68C71 97.92 71 98.16 70.96 98.4C70.96 98.64 70.94 98.88 70.9 99.12C70.9 99.16 70.86 99.3 70.78 99.54C70.66 99.7 70.54 99.86 70.42 100.02C70.34 100.18 70.24 100.34 70.12 100.5C69.8 100.94 69.54 101.44 69.34 102C69.26 102.36 69 102.64 68.56 102.84C68.32 102.96 68.06 102.96 67.78 102.84C67.42 102.72 67.18 102.48 67.06 102.12L66.94 101.82C66.82 101.42 66.64 101.04 66.4 100.68C66.24 100.4 66.08 100.12 65.92 99.84C65.8 99.52 65.66 99.22 65.5 98.94C65.46 98.86 65.44 98.8 65.44 98.76C65.44 98.68 65.42 98.62 65.38 98.58C65.34 98.34 65.26 98.12 65.14 97.92C65.06 97.68 64.96 97.46 64.84 97.26C64.6 96.66 64.34 96.08 64.06 95.52C63.82 94.92 63.56 94.32 63.28 93.72L62.38 91.8C62.34 91.68 62.3 91.56 62.26 91.44C62.22 91.28 62.16 91.12 62.08 90.96L61.36 89.34C61.36 89.26 61.32 89.14 61.24 88.98C61.04 88.66 60.78 88.48 60.46 88.44C60.18 88.44 59.92 88.42 59.68 88.38C59.44 88.34 59.2 88.32 58.96 88.32C58.32 88.32 57.68 88.38 57.04 88.5C56.4 88.62 55.8 88.84 55.24 89.16C54.48 89.6 53.7 89.88 52.9 90C52.74 90 52.58 90.02 52.42 90.06C52.26 90.1 52.1 90.16 51.94 90.24C51.7 90.4 51.56 90.58 51.52 90.78C51.44 91.02 51.4 91.2 51.4 91.32L51.22 92.16C51.18 92.44 51.02 92.72 50.74 93C50.54 93.2 50.26 93.3 49.9 93.3C49.38 93.22 49.04 92.96 48.88 92.52C48.84 92.4 48.8 92.28 48.76 92.16C48.72 92.04 48.68 91.9 48.64 91.74C48.48 91.98 48.46 92.18 48.58 92.34C48.66 92.5 48.62 92.64 48.46 92.76C48.38 92.84 48.36 92.9 48.4 92.94C48.48 93.1 48.46 93.24 48.34 93.36C48.22 93.48 48.18 93.62 48.22 93.78C48.26 93.86 48.26 93.96 48.22 94.08C48.02 94.36 47.88 94.7 47.8 95.1C47.84 95.26 47.74 95.38 47.5 95.46C47.42 95.46 47.38 95.5 47.38 95.58C47.3 95.7 47.22 95.88 47.14 96.12C47.1 96.32 47.04 96.54 46.96 96.78C46.92 96.98 46.86 97.18 46.78 97.38L46.42 98.88V99.12C46.42 99.48 46.38 99.84 46.3 100.2C46.26 100.52 46.24 100.86 46.24 101.22L46.06 103.2C46.02 103.48 45.98 103.76 45.94 104.04C45.94 104.36 45.94 104.68 45.94 105C45.9 105.24 45.86 105.46 45.82 105.66C45.82 105.9 45.78 106.14 45.7 106.38C45.62 106.74 45.48 107 45.28 107.16C45.12 107.4 44.86 107.48 44.5 107.4ZM52.3 83.1H52.36C52.76 83.02 53.14 82.96 53.5 82.92C53.86 82.88 54.22 82.84 54.58 82.8C54.82 82.76 55.06 82.74 55.3 82.74C55.54 82.7 55.78 82.68 56.02 82.68H57.28C57.36 82.68 57.44 82.68 57.52 82.68C57.6 82.64 57.66 82.62 57.7 82.62C57.78 82.62 57.82 82.54 57.82 82.38C57.7 82.22 57.6 82.06 57.52 81.9C57.44 81.74 57.36 81.58 57.28 81.42C57.04 80.86 56.72 80.38 56.32 79.98C56.28 79.9 56.24 79.84 56.2 79.8C56.16 79.72 56.12 79.64 56.08 79.56C56.04 79.48 55.98 79.4 55.9 79.32C55.86 79.2 55.8 79.1 55.72 79.02C55.52 78.86 55.32 78.9 55.12 79.14L54.94 79.62C54.9 79.94 54.84 80.28 54.76 80.64C54.68 80.96 54.6 81.28 54.52 81.6C54.52 81.68 54.48 81.8 54.4 81.96C54.32 82.2 54.12 82.38 53.8 82.5C53.52 82.62 53.22 82.58 52.9 82.38L52.54 82.14C52.54 82.14 52.5 82.14 52.42 82.14C52.34 82.3 52.3 82.42 52.3 82.5C52.3 82.58 52.3 82.66 52.3 82.74C52.34 82.82 52.32 82.9 52.24 82.98C52.16 83.06 52.18 83.1 52.3 83.1ZM103.661 124.62L102.881 123.9C102.801 123.82 102.761 123.74 102.761 123.66L102.581 123.06C102.581 122.74 102.521 122.4 102.401 122.04C102.361 121.96 102.341 121.86 102.341 121.74C102.341 121.62 102.321 121.52 102.281 121.44C102.281 121.12 102.261 120.8 102.221 120.48C102.181 120.2 102.121 119.92 102.041 119.64V119.4C102.001 118.84 101.941 118.26 101.861 117.66C101.781 117.1 101.741 116.54 101.741 115.98V115.14C101.741 115.02 101.741 114.9 101.741 114.78C101.781 114.66 101.781 114.52 101.741 114.36C101.741 114.12 101.721 113.84 101.681 113.52C101.681 113.24 101.681 112.96 101.681 112.68C101.681 112.48 101.681 112.26 101.681 112.02C101.681 111.78 101.661 111.56 101.621 111.36C101.581 110.96 101.541 110.56 101.501 110.16C101.461 109.76 101.421 109.36 101.381 108.96C101.341 108.56 101.301 108.16 101.261 107.76C101.261 107.36 101.261 106.96 101.261 106.56C101.181 106.24 101.121 105.94 101.081 105.66C101.041 105.38 100.981 105.1 100.901 104.82C100.821 104.46 100.681 104.18 100.481 103.98C100.321 103.78 100.161 103.58 100.001 103.38C99.8809 103.22 99.7809 103.04 99.7009 102.84C99.6209 102.68 99.5409 102.56 99.4609 102.48C99.2609 102.28 99.0609 102.06 98.8609 101.82C98.7009 101.54 98.5209 101.28 98.3209 101.04C98.1209 100.68 97.9009 100.36 97.6609 100.08C97.5409 99.88 97.4009 99.7 97.2409 99.54C97.1209 99.34 97.0209 99.16 96.9409 99C96.8609 98.8 96.7409 98.64 96.5809 98.52C96.4609 98.36 96.3409 98.22 96.2209 98.1L93.9409 95.58C93.5809 95.18 93.2409 94.78 92.9209 94.38C92.8409 94.18 92.7409 94.02 92.6209 93.9C92.5009 93.78 92.3609 93.64 92.2009 93.48L90.7609 91.98C90.6409 91.82 90.5009 91.7 90.3409 91.62C90.2209 91.5 90.0809 91.4 89.9209 91.32C89.6009 91.16 89.2809 90.92 88.9609 90.6C88.9609 90.56 88.9209 90.5 88.8409 90.42C88.6009 90.26 88.3609 90.08 88.1209 89.88C87.9209 89.68 87.7209 89.48 87.5209 89.28C87.2809 89.04 87.1009 88.88 86.9809 88.8C86.6609 88.48 86.3209 88.18 85.9609 87.9C85.6409 87.62 85.3209 87.32 85.0009 87C84.8409 86.84 84.6809 86.7 84.5209 86.58C84.4009 86.42 84.2809 86.26 84.1609 86.1L83.8009 85.74C83.8009 85.74 83.7809 85.74 83.7409 85.74C83.7409 85.74 83.7409 85.76 83.7409 85.8L83.6809 85.86V85.92C83.8809 86.72 84.0209 87.6 84.1009 88.56C84.1009 88.68 84.1209 88.76 84.1609 88.8C84.2809 89.2 84.3209 89.6 84.2809 90C84.2809 90.36 84.2409 90.74 84.1609 91.14C84.0809 91.46 84.1409 91.72 84.3409 91.92C84.4209 92 84.4209 92.08 84.3409 92.16C84.3409 92.36 84.3409 92.46 84.3409 92.46C84.3809 92.66 84.4009 92.86 84.4009 93.06C84.4009 93.26 84.4009 93.46 84.4009 93.66C84.4009 93.94 84.4209 94.14 84.4609 94.26C84.5809 94.86 84.6209 95.42 84.5809 95.94C84.5409 96.1 84.5209 96.28 84.5209 96.48C84.5209 96.68 84.5009 96.88 84.4609 97.08C84.4209 97.2 84.4009 97.32 84.4009 97.44C84.4409 97.52 84.4609 97.6 84.4609 97.68C84.5009 97.84 84.5209 98 84.5209 98.16C84.5609 98.28 84.5609 98.42 84.5209 98.58C84.5209 98.94 84.4409 99.26 84.2809 99.54C84.0409 99.94 83.7209 100.18 83.3209 100.26C83.2009 100.26 83.1209 100.28 83.0809 100.32C82.8809 100.4 82.7809 100.5 82.7809 100.62C82.7809 100.82 82.7609 101.02 82.7209 101.22C82.7209 101.38 82.7209 101.56 82.7209 101.76V103.32C82.7609 103.68 82.6809 104.04 82.4809 104.4C82.3609 104.6 82.2009 104.74 82.0009 104.82C81.8009 104.9 81.6009 104.92 81.4009 104.88C80.8409 104.68 80.4809 104.32 80.3209 103.8L80.1409 103.08C80.1009 102.8 80.0209 102.52 79.9009 102.24C79.8209 102 79.6809 101.76 79.4809 101.52C79.4009 101.36 79.3209 101.2 79.2409 101.04C79.1609 100.88 79.0809 100.72 79.0009 100.56C78.8409 100.2 78.7009 99.84 78.5809 99.48C78.5009 99.08 78.4209 98.68 78.3409 98.28C78.3009 98.04 78.2809 97.82 78.2809 97.62C78.2809 97.38 78.2809 97.14 78.2809 96.9C78.2809 96.74 78.2609 96.58 78.2209 96.42C78.2209 96.26 78.2209 96.1 78.2209 95.94C78.1809 95.66 78.1609 95.38 78.1609 95.1C78.1609 94.82 78.1609 94.54 78.1609 94.26C78.1609 94.06 78.1609 93.84 78.1609 93.6C78.1609 93.36 78.1209 93.14 78.0409 92.94V92.7C78.0409 92.3 78.0209 91.92 77.9809 91.56C77.9409 91.2 77.9009 90.82 77.8609 90.42C77.8609 90.34 77.8409 90.28 77.8009 90.24C77.7609 90 77.7209 89.76 77.6809 89.52C77.6409 89.24 77.5809 88.98 77.5009 88.74C77.4209 88.42 77.3409 88.1 77.2609 87.78C77.2209 87.46 77.1609 87.14 77.0809 86.82C77.0409 86.54 77.0009 86.28 76.9609 86.04C76.9209 85.76 76.8609 85.48 76.7809 85.2C76.7409 85.04 76.7009 84.9 76.6609 84.78C76.6609 84.62 76.6609 84.46 76.6609 84.3C76.6209 84.06 76.5809 83.84 76.5409 83.64C76.5409 83.4 76.5409 83.18 76.5409 82.98C76.5009 82.66 76.4609 82.34 76.4209 82.02C76.3809 81.66 76.3209 81.32 76.2409 81C76.2009 80.8 76.1609 80.6 76.1209 80.4C76.1209 80.16 76.1209 79.94 76.1209 79.74C76.0809 79.22 76.0209 78.72 75.9409 78.24C75.9009 77.76 75.8809 77.26 75.8809 76.74C75.8809 76.54 75.8609 76.36 75.8209 76.2C75.8209 76 75.8209 75.82 75.8209 75.66C75.7809 75.3 75.7209 74.94 75.6409 74.58C75.6009 74.18 75.5609 73.8 75.5209 73.44L75.1609 71.04C75.1209 70.6 75.0809 70.14 75.0409 69.66C75.0009 69.18 74.9809 68.72 74.9809 68.28C74.9809 68 74.9809 67.72 74.9809 67.44C74.9809 67.16 74.9609 66.88 74.9209 66.6C74.8409 66.08 74.8609 65.58 74.9809 65.1C75.1009 64.54 75.3409 64.06 75.7009 63.66C75.8209 63.5 75.9409 63.36 76.0609 63.24C76.1809 63.12 76.3009 63 76.4209 62.88C76.6609 62.68 76.9209 62.54 77.2009 62.46C77.5209 62.38 77.8209 62.32 78.1009 62.28C78.3009 62.28 78.5009 62.3 78.7009 62.34C78.9009 62.34 79.0809 62.36 79.2409 62.4C79.4809 62.48 79.7209 62.54 79.9609 62.58C80.2409 62.58 80.5209 62.58 80.8009 62.58C81.3209 62.58 81.8209 62.58 82.3009 62.58C82.8209 62.58 83.3409 62.6 83.8609 62.64C84.7809 62.64 85.7209 62.7 86.6809 62.82C87.2409 62.9 87.7609 63.02 88.2409 63.18C88.7609 63.3 89.2809 63.46 89.8009 63.66C90.6809 63.98 91.5009 64.34 92.2609 64.74C92.6209 64.9 92.9609 65.1 93.2809 65.34C93.6009 65.54 93.9009 65.78 94.1809 66.06C94.3009 66.18 94.4209 66.3 94.5409 66.42C94.6609 66.54 94.7609 66.68 94.8409 66.84C94.9609 66.96 95.0809 67.08 95.2009 67.2C95.3209 67.32 95.4009 67.48 95.4409 67.68C95.5209 67.84 95.5609 67.92 95.5609 67.92C95.8409 68.32 96.0409 68.76 96.1609 69.24C96.3209 69.72 96.4409 70.2 96.5209 70.68C96.6009 71.08 96.6009 71.48 96.5209 71.88C96.4809 72.24 96.4409 72.62 96.4009 73.02C96.4009 73.3 96.3809 73.56 96.3409 73.8C96.3009 74.04 96.2409 74.28 96.1609 74.52C96.1209 74.92 96.0009 75.3 95.8009 75.66C95.6409 76.02 95.4609 76.36 95.2609 76.68C95.2609 76.72 95.2409 76.76 95.2009 76.8C95.1609 76.8 95.1209 76.84 95.0809 76.92C94.8009 77.24 94.4809 77.56 94.1209 77.88C93.8009 78.2 93.4209 78.48 92.9809 78.72C92.8209 78.8 92.6609 78.9 92.5009 79.02C92.3809 79.14 92.2209 79.24 92.0209 79.32C91.9409 79.4 91.9409 79.48 92.0209 79.56C92.1809 79.72 92.3009 79.82 92.3809 79.86C92.6609 80.1 92.9409 80.34 93.2209 80.58C93.5409 80.82 93.8409 81.06 94.1209 81.3C94.4409 81.5 94.7209 81.74 94.9609 82.02C95.2009 82.26 95.4609 82.5 95.7409 82.74C96.0209 83.02 96.3009 83.3 96.5809 83.58C96.8609 83.86 97.1409 84.14 97.4209 84.42C97.5009 84.46 97.5809 84.52 97.6609 84.6C97.7409 84.68 97.8209 84.76 97.9009 84.84C98.1009 85 98.2809 85.16 98.4409 85.32C98.6009 85.48 98.7609 85.66 98.9209 85.86C99.0009 86.02 99.1009 86.16 99.2209 86.28C99.3409 86.36 99.4609 86.46 99.5809 86.58C99.7409 86.7 99.8809 86.82 100.001 86.94C100.121 87.06 100.261 87.2 100.421 87.36C100.621 87.6 100.841 87.86 101.081 88.14C101.321 88.38 101.561 88.62 101.801 88.86L102.161 89.28C102.241 89.36 102.321 89.44 102.401 89.52C102.481 89.6 102.541 89.68 102.581 89.76C102.941 90.16 103.301 90.56 103.661 90.96C104.061 91.36 104.461 91.78 104.861 92.22L105.221 92.58C105.461 92.74 105.681 92.96 105.881 93.24C106.121 93.48 106.341 93.7 106.541 93.9C106.701 94.02 106.821 94.2 106.901 94.44C106.941 94.56 106.981 94.68 107.021 94.8C107.061 94.88 107.101 94.98 107.141 95.1C107.261 95.42 107.301 95.72 107.261 96C107.221 96.08 107.201 96.22 107.201 96.42C107.201 96.74 107.121 97.04 106.961 97.32C106.841 97.6 106.681 97.86 106.481 98.1L105.941 98.58C105.461 99.06 105.161 99.68 105.041 100.44C105.001 100.84 104.961 101.24 104.921 101.64C104.921 102.04 104.921 102.46 104.921 102.9C104.921 103.34 104.921 103.78 104.921 104.22C104.921 104.66 104.941 105.1 104.981 105.54V106.32C105.021 106.44 105.041 106.66 105.041 106.98V115.2C105.041 115.48 105.021 115.76 104.981 116.04C104.981 116.36 104.981 116.68 104.981 117C104.941 117.16 104.921 117.32 104.921 117.48C104.921 117.64 104.921 117.8 104.921 117.96V119.16C104.921 119.36 104.941 119.52 104.981 119.64C105.061 120.28 105.081 120.92 105.041 121.56C105.041 122.2 105.061 122.86 105.101 123.54C105.101 123.9 104.941 124.24 104.621 124.56C104.301 124.88 103.981 124.9 103.661 124.62ZM82.7209 76.74C82.7609 76.7 82.8009 76.68 82.8409 76.68C82.8809 76.68 82.9209 76.66 82.9609 76.62C83.6009 76.18 84.2409 75.98 84.8809 76.02C85.1209 76.02 85.3009 76.04 85.4209 76.08C85.7409 76.16 86.0209 76.1 86.2609 75.9C86.6209 75.7 86.9809 75.54 87.3409 75.42C87.7009 75.26 88.0409 75.08 88.3609 74.88C88.4009 74.88 88.4209 74.88 88.4209 74.88C88.4209 74.84 88.4409 74.82 88.4809 74.82C89.0009 74.66 89.4809 74.38 89.9209 73.98C90.3209 73.7 90.5409 73.52 90.5809 73.44C90.6609 73.32 90.7409 73 90.8209 72.48V72.24C90.8209 72 90.8009 71.78 90.7609 71.58C90.7209 71.38 90.7009 71.2 90.7009 71.04C90.5809 70.6 90.3409 70.26 89.9809 70.02C89.6209 69.78 89.2409 69.6 88.8409 69.48C88.4009 69.28 87.9409 69.14 87.4609 69.06C86.9809 68.94 86.5209 68.84 86.0809 68.76C86.0409 68.76 86.0009 68.76 85.9609 68.76C85.9609 68.72 85.9409 68.7 85.9009 68.7C85.5009 68.62 85.1409 68.7 84.8209 68.94C84.8209 68.94 84.8009 68.94 84.7609 68.94C84.7609 68.94 84.7409 68.96 84.7009 69C84.2609 69.24 83.8609 69.3 83.5009 69.18H83.2009C82.6009 69.18 82.1809 69.44 81.9409 69.96C81.8609 70.2 81.8209 70.38 81.8209 70.5C81.8209 70.7 81.8209 70.92 81.8209 71.16C81.8209 71.4 81.8409 71.62 81.8809 71.82C81.9609 72.06 82.0009 72.24 82.0009 72.36C82.0009 72.64 82.0209 72.9 82.0609 73.14C82.1009 73.38 82.1409 73.62 82.1809 73.86C82.2209 73.9 82.2409 73.98 82.2409 74.1C82.2009 74.26 82.1809 74.4 82.1809 74.52C82.2209 74.64 82.2409 74.78 82.2409 74.94C82.2809 75.1 82.3009 75.24 82.3009 75.36C82.3409 75.48 82.3409 75.6 82.3009 75.72C82.3009 76.04 82.3609 76.36 82.4809 76.68C82.4809 76.72 82.5009 76.76 82.5409 76.8C82.6209 76.8 82.6809 76.78 82.7209 76.74ZM115.281 107.4C115.241 107.4 115.101 107.36 114.861 107.28C114.741 107.24 114.601 107.1 114.441 106.86C114.401 106.74 114.361 106.62 114.321 106.5C114.281 106.38 114.261 106.26 114.261 106.14C114.141 105.54 114.081 104.94 114.081 104.34V100.2C114.081 99.84 114.041 99.48 113.961 99.12C113.881 98.76 113.801 98.4 113.721 98.04C113.721 97.96 113.681 97.84 113.601 97.68C113.561 97.56 113.501 97.44 113.421 97.32C113.341 97.16 113.261 97.02 113.181 96.9C113.021 96.62 112.901 96.32 112.821 96C112.741 95.68 112.681 95.38 112.641 95.1C112.601 94.66 112.601 94.24 112.641 93.84C112.721 93.6 112.781 93.38 112.821 93.18C112.861 92.94 112.921 92.72 113.001 92.52C113.121 92.2 113.221 91.88 113.301 91.56C113.381 91.2 113.481 90.84 113.601 90.48L114.501 87.54C114.781 86.7 115.141 85.84 115.581 84.96C116.021 84.12 116.441 83.18 116.841 82.14C116.921 81.9 117.021 81.64 117.141 81.36C117.301 80.92 117.461 80.5 117.621 80.1C117.821 79.66 118.001 79.24 118.161 78.84L119.061 76.32C119.141 76.16 119.201 76 119.241 75.84C119.281 75.68 119.321 75.52 119.361 75.36C119.681 74.56 120.001 73.8 120.321 73.08C120.561 72.6 120.721 72.08 120.801 71.52C120.881 70.96 120.881 70.4 120.801 69.84C120.761 69.6 120.721 69.36 120.681 69.12C120.681 68.84 120.681 68.58 120.681 68.34C120.681 68.22 120.641 68.12 120.561 68.04C120.521 67.92 120.521 67.8 120.561 67.68C120.601 67.6 120.641 67.52 120.681 67.44C120.761 67.36 120.821 67.28 120.861 67.2C120.981 66.76 121.161 66.38 121.401 66.06C121.681 65.7 121.981 65.38 122.301 65.1C122.461 64.94 122.681 64.82 122.961 64.74C123.121 64.66 123.261 64.58 123.381 64.5C123.541 64.42 123.681 64.32 123.801 64.2C124.001 64.04 124.221 63.94 124.461 63.9C124.781 63.86 125.121 63.74 125.481 63.54C125.801 63.34 126.161 63.28 126.561 63.36H127.101C127.381 63.36 127.681 63.46 128.001 63.66C128.081 63.7 128.161 63.76 128.241 63.84C128.361 63.88 128.481 63.94 128.601 64.02C128.921 64.26 129.081 64.56 129.081 64.92C129.081 65.2 129.101 65.46 129.141 65.7C129.221 65.94 129.281 66.2 129.321 66.48C129.401 66.72 129.401 66.98 129.321 67.26C129.281 67.34 129.261 67.44 129.261 67.56C129.261 67.64 129.241 67.72 129.201 67.8C129.201 67.96 129.181 68.12 129.141 68.28C129.141 68.44 129.121 68.6 129.081 68.76C128.961 69.04 129.001 69.32 129.201 69.6C129.521 70.12 129.801 70.66 130.041 71.22C130.321 71.78 130.601 72.34 130.881 72.9L131.961 74.82C132.281 75.34 132.601 75.96 132.921 76.68C133.001 76.8 133.061 76.92 133.101 77.04C133.181 77.16 133.261 77.28 133.341 77.4C133.461 77.6 133.561 77.82 133.641 78.06C133.761 78.3 133.881 78.54 134.001 78.78C134.321 79.38 134.581 80 134.781 80.64C135.021 81.24 135.261 81.88 135.501 82.56C135.501 82.6 135.501 82.64 135.501 82.68C135.541 82.68 135.561 82.7 135.561 82.74C135.601 83.02 135.801 83.16 136.161 83.16C136.281 83.12 136.401 83.1 136.521 83.1C136.681 83.1 136.821 83.1 136.941 83.1C137.381 83.1 137.761 83.18 138.081 83.34C138.281 83.38 138.481 83.5 138.681 83.7C139.001 84.02 139.221 84.28 139.341 84.48C139.461 84.68 139.541 84.98 139.581 85.38C139.741 86.14 139.581 86.8 139.101 87.36L138.741 87.66C138.661 87.74 138.561 87.82 138.441 87.9C138.321 87.94 138.221 88 138.141 88.08C137.941 88.24 137.821 88.36 137.781 88.44C137.781 88.52 137.841 88.7 137.961 88.98L138.861 91.14C139.221 91.94 139.581 92.74 139.941 93.54C140.341 94.34 140.741 95.14 141.141 95.94C141.301 96.22 141.421 96.5 141.501 96.78C141.621 97.06 141.701 97.36 141.741 97.68C141.781 97.92 141.781 98.16 141.741 98.4C141.741 98.64 141.721 98.88 141.681 99.12C141.681 99.16 141.641 99.3 141.561 99.54C141.441 99.7 141.321 99.86 141.201 100.02C141.121 100.18 141.021 100.34 140.901 100.5C140.581 100.94 140.321 101.44 140.121 102C140.041 102.36 139.781 102.64 139.341 102.84C139.101 102.96 138.841 102.96 138.561 102.84C138.201 102.72 137.961 102.48 137.841 102.12L137.721 101.82C137.601 101.42 137.421 101.04 137.181 100.68C137.021 100.4 136.861 100.12 136.701 99.84C136.581 99.52 136.441 99.22 136.281 98.94C136.241 98.86 136.221 98.8 136.221 98.76C136.221 98.68 136.201 98.62 136.161 98.58C136.121 98.34 136.041 98.12 135.921 97.92C135.841 97.68 135.741 97.46 135.621 97.26C135.381 96.66 135.121 96.08 134.841 95.52C134.601 94.92 134.341 94.32 134.061 93.72L133.161 91.8C133.121 91.68 133.081 91.56 133.041 91.44C133.001 91.28 132.941 91.12 132.861 90.96L132.141 89.34C132.141 89.26 132.101 89.14 132.021 88.98C131.821 88.66 131.561 88.48 131.241 88.44C130.961 88.44 130.701 88.42 130.461 88.38C130.221 88.34 129.981 88.32 129.741 88.32C129.101 88.32 128.461 88.38 127.821 88.5C127.181 88.62 126.581 88.84 126.021 89.16C125.261 89.6 124.481 89.88 123.681 90C123.521 90 123.361 90.02 123.201 90.06C123.041 90.1 122.881 90.16 122.721 90.24C122.481 90.4 122.341 90.58 122.301 90.78C122.221 91.02 122.181 91.2 122.181 91.32L122.001 92.16C121.961 92.44 121.801 92.72 121.521 93C121.321 93.2 121.041 93.3 120.681 93.3C120.161 93.22 119.821 92.96 119.661 92.52C119.621 92.4 119.581 92.28 119.541 92.16C119.501 92.04 119.461 91.9 119.421 91.74C119.261 91.98 119.241 92.18 119.361 92.34C119.441 92.5 119.401 92.64 119.241 92.76C119.161 92.84 119.141 92.9 119.181 92.94C119.261 93.1 119.241 93.24 119.121 93.36C119.001 93.48 118.961 93.62 119.001 93.78C119.041 93.86 119.041 93.96 119.001 94.08C118.801 94.36 118.661 94.7 118.581 95.1C118.621 95.26 118.521 95.38 118.281 95.46C118.201 95.46 118.161 95.5 118.161 95.58C118.081 95.7 118.001 95.88 117.921 96.12C117.881 96.32 117.821 96.54 117.741 96.78C117.701 96.98 117.641 97.18 117.561 97.38L117.201 98.88V99.12C117.201 99.48 117.161 99.84 117.081 100.2C117.041 100.52 117.021 100.86 117.021 101.22L116.841 103.2C116.801 103.48 116.761 103.76 116.721 104.04C116.721 104.36 116.721 104.68 116.721 105C116.681 105.24 116.641 105.46 116.601 105.66C116.601 105.9 116.561 106.14 116.481 106.38C116.401 106.74 116.261 107 116.061 107.16C115.901 107.4 115.641 107.48 115.281 107.4ZM123.081 83.1H123.141C123.541 83.02 123.921 82.96 124.281 82.92C124.641 82.88 125.001 82.84 125.361 82.8C125.601 82.76 125.841 82.74 126.081 82.74C126.321 82.7 126.561 82.68 126.801 82.68H128.061C128.141 82.68 128.221 82.68 128.301 82.68C128.381 82.64 128.441 82.62 128.481 82.62C128.561 82.62 128.601 82.54 128.601 82.38C128.481 82.22 128.381 82.06 128.301 81.9C128.221 81.74 128.141 81.58 128.061 81.42C127.821 80.86 127.501 80.38 127.101 79.98C127.061 79.9 127.021 79.84 126.981 79.8C126.941 79.72 126.901 79.64 126.861 79.56C126.821 79.48 126.761 79.4 126.681 79.32C126.641 79.2 126.581 79.1 126.501 79.02C126.301 78.86 126.101 78.9 125.901 79.14L125.721 79.62C125.681 79.94 125.621 80.28 125.541 80.64C125.461 80.96 125.381 81.28 125.301 81.6C125.301 81.68 125.261 81.8 125.181 81.96C125.101 82.2 124.901 82.38 124.581 82.5C124.301 82.62 124.001 82.58 123.681 82.38L123.321 82.14C123.321 82.14 123.281 82.14 123.201 82.14C123.121 82.3 123.081 82.42 123.081 82.5C123.081 82.58 123.081 82.66 123.081 82.74C123.121 82.82 123.101 82.9 123.021 82.98C122.941 83.06 122.961 83.1 123.081 83.1ZM158.341 109.98C157.701 110.38 157.181 110.24 156.781 109.56C156.621 109.32 156.541 109.1 156.541 108.9L156.361 108.06C156.321 107.46 156.241 106.86 156.121 106.26C156.001 105.66 155.861 105.04 155.701 104.4C155.701 104.32 155.681 104.24 155.641 104.16C155.641 104.12 155.641 104.06 155.641 103.98C155.641 103.82 155.621 103.7 155.581 103.62C155.461 103.02 155.141 102.58 154.621 102.3C154.261 102.1 153.881 101.92 153.481 101.76C153.121 101.56 152.741 101.38 152.341 101.22L150.841 100.5C150.521 100.34 150.221 100.08 149.941 99.72C149.501 99.24 149.101 98.74 148.741 98.22C148.381 97.7 148.081 97.14 147.841 96.54C147.761 96.3 147.661 96.06 147.541 95.82C147.461 95.58 147.381 95.34 147.301 95.1C147.221 94.9 147.161 94.7 147.121 94.5C147.081 94.3 147.021 94.12 146.941 93.96L146.581 92.7C146.501 92.54 146.461 92.38 146.461 92.22C146.421 91.94 146.381 91.68 146.341 91.44C146.341 91.16 146.301 90.88 146.221 90.6C146.181 90.32 146.141 90.04 146.101 89.76C146.101 89.48 146.101 89.2 146.101 88.92C146.101 88.76 146.081 88.64 146.041 88.56C146.001 88 145.981 87.46 145.981 86.94C145.981 86.42 145.961 85.9 145.921 85.38C145.921 85.06 145.921 84.74 145.921 84.42C145.921 84.1 145.941 83.8 145.981 83.52L146.161 81.36C146.161 81.24 146.161 81.14 146.161 81.06C146.201 80.94 146.221 80.84 146.221 80.76C146.261 80.24 146.301 79.74 146.341 79.26C146.421 78.78 146.521 78.3 146.641 77.82C146.721 77.7 146.761 77.58 146.761 77.46C146.761 77.34 146.761 77.22 146.761 77.1C146.881 76.66 146.981 76.22 147.061 75.78C147.181 75.3 147.281 74.82 147.361 74.34L147.721 72.36C147.801 72.04 147.861 71.72 147.901 71.4C147.981 71.08 148.061 70.76 148.141 70.44C148.461 69.08 149.021 67.92 149.821 66.96C150.301 66.28 150.861 65.74 151.501 65.34C151.981 65.02 152.461 64.7 152.941 64.38C153.461 64.06 153.981 63.78 154.501 63.54C155.061 63.22 155.641 62.94 156.241 62.7C156.841 62.46 157.461 62.24 158.101 62.04C158.381 61.96 158.641 61.88 158.881 61.8C159.161 61.72 159.441 61.66 159.721 61.62C160.201 61.5 160.681 61.46 161.161 61.5C161.641 61.5 162.101 61.6 162.541 61.8C163.101 62 163.581 62.26 163.981 62.58C164.181 62.74 164.381 62.9 164.581 63.06C164.821 63.18 165.021 63.34 165.181 63.54C166.021 64.14 166.561 64.96 166.801 66C166.841 66.16 166.881 66.32 166.921 66.48C166.961 66.6 166.981 66.76 166.981 66.96C167.021 67.68 166.901 68.36 166.621 69C166.541 69.16 166.441 69.34 166.321 69.54C166.241 69.7 166.121 69.86 165.961 70.02C165.761 70.26 165.561 70.52 165.361 70.8C165.201 71.04 165.021 71.28 164.821 71.52C164.461 71.92 164.281 72.42 164.281 73.02V76.74C164.281 76.9 164.261 77.06 164.221 77.22C164.221 77.34 164.221 77.48 164.221 77.64C164.181 77.84 164.161 78.06 164.161 78.3C164.161 78.5 164.161 78.7 164.161 78.9C164.161 79.1 164.241 79.16 164.401 79.08H164.581C164.701 79.04 164.801 79.02 164.881 79.02C165.001 79.02 165.101 79 165.181 78.96C165.781 78.76 166.381 78.62 166.981 78.54C167.581 78.42 168.201 78.34 168.841 78.3C169.401 78.22 169.941 78.22 170.461 78.3C170.981 78.34 171.501 78.42 172.021 78.54C172.381 78.66 172.721 78.8 173.041 78.96C173.401 79.08 173.721 79.26 174.001 79.5C174.201 79.66 174.401 79.84 174.601 80.04C174.801 80.2 174.961 80.38 175.081 80.58C175.361 80.98 175.581 81.4 175.741 81.84C175.941 82.24 176.041 82.66 176.041 83.1V83.16C176.121 83.56 176.161 83.96 176.161 84.36C176.161 84.76 176.121 85.16 176.041 85.56C176.001 85.8 175.961 86.04 175.921 86.28C175.881 86.48 175.841 86.7 175.801 86.94C175.721 87.3 175.621 87.66 175.501 88.02C175.421 88.38 175.341 88.74 175.261 89.1C175.221 89.26 175.181 89.42 175.141 89.58C175.141 89.7 175.141 89.84 175.141 90V93.48C175.141 93.8 175.161 94.12 175.201 94.44C175.241 94.76 175.281 95.08 175.321 95.4C175.361 95.6 175.401 95.8 175.441 96C175.521 96.2 175.581 96.4 175.621 96.6C175.621 96.68 175.701 96.8 175.861 96.96C176.061 97.16 176.181 97.38 176.221 97.62C176.221 97.74 176.241 97.82 176.281 97.86C176.441 98.22 176.521 98.64 176.521 99.12C176.521 99.28 176.501 99.44 176.461 99.6C176.461 99.76 176.481 99.94 176.521 100.14C176.601 100.38 176.541 100.6 176.341 100.8C176.261 100.88 176.201 100.98 176.161 101.1C176.121 101.22 176.061 101.34 175.981 101.46C175.861 101.7 175.701 101.92 175.501 102.12C175.381 102.16 175.281 102.24 175.201 102.36C175.121 102.48 175.041 102.58 174.961 102.66C174.641 103.02 174.261 103.14 173.821 103.02C173.781 103.02 173.721 103 173.641 102.96C173.601 102.96 173.561 102.96 173.521 102.96C173.161 102.92 172.841 102.8 172.561 102.6C172.321 102.44 172.081 102.24 171.841 102C171.761 101.88 171.661 101.76 171.541 101.64C171.461 101.48 171.361 101.34 171.241 101.22C171.121 101.06 171.021 100.88 170.941 100.68C170.901 100.48 170.841 100.3 170.761 100.14C170.601 99.58 170.421 99 170.221 98.4C170.061 97.8 169.941 97.2 169.861 96.6C169.781 96.04 169.681 95.48 169.561 94.92C169.441 94.32 169.361 93.72 169.321 93.12C169.241 92.8 169.201 92.52 169.201 92.28C169.121 92.12 169.081 92.04 169.081 92.04C168.921 92.12 168.821 92.18 168.781 92.22C168.381 92.7 167.941 93.18 167.461 93.66C166.981 94.1 166.521 94.56 166.081 95.04C166.001 95.16 165.901 95.28 165.781 95.4C165.701 95.48 165.621 95.56 165.541 95.64C165.301 95.88 165.061 96.12 164.821 96.36C164.581 96.56 164.361 96.78 164.161 97.02C164.001 97.14 163.861 97.26 163.741 97.38C163.621 97.5 163.481 97.6 163.321 97.68C163.241 97.76 163.161 97.84 163.081 97.92C163.001 98 162.921 98.08 162.841 98.16C162.681 98.32 162.521 98.48 162.361 98.64C162.241 98.76 162.081 98.88 161.881 99L161.641 99.24C161.001 99.76 160.361 100.22 159.721 100.62C159.041 100.98 158.701 101.56 158.701 102.36C158.701 102.6 158.701 102.84 158.701 103.08C158.701 103.32 158.721 103.56 158.761 103.8C158.761 103.84 158.761 103.86 158.761 103.86C158.801 103.86 158.821 103.88 158.821 103.92C158.861 104.68 158.901 105.44 158.941 106.2C159.021 107 159.041 107.8 159.001 108.6C158.961 108.72 158.941 108.88 158.941 109.08C158.861 109.44 158.661 109.74 158.341 109.98ZM157.981 92.94C158.701 93.3 159.401 93.28 160.081 92.88C160.201 92.76 160.301 92.68 160.381 92.64C160.701 92.4 161.001 92.16 161.281 91.92C161.561 91.64 161.841 91.38 162.121 91.14C162.401 90.9 162.661 90.66 162.901 90.42C163.141 90.14 163.401 89.88 163.681 89.64C164.001 89.32 164.321 88.98 164.641 88.62C164.961 88.26 165.261 87.9 165.541 87.54C165.741 87.3 165.901 87.04 166.021 86.76C166.181 86.56 166.281 86.32 166.321 86.04C166.321 85.76 166.201 85.66 165.961 85.74C165.761 85.78 165.561 85.82 165.361 85.86C165.161 85.9 164.961 86 164.761 86.16C164.521 86.32 164.261 86.48 163.981 86.64C163.741 86.8 163.481 86.98 163.201 87.18C163.121 87.26 163.041 87.38 162.961 87.54C162.881 87.82 162.801 88.16 162.721 88.56C162.721 88.84 162.701 89.1 162.661 89.34C162.661 89.58 162.641 89.82 162.601 90.06C162.481 90.62 162.201 90.98 161.761 91.14C161.481 91.26 161.241 91.24 161.041 91.08C160.761 90.92 160.561 90.7 160.441 90.42C160.361 90.14 160.281 89.86 160.201 89.58C160.121 89.3 160.061 89.02 160.021 88.74L159.841 87.6C159.841 87.12 159.621 86.62 159.181 86.1C159.101 86.02 159.001 85.92 158.881 85.8C158.801 85.68 158.721 85.56 158.641 85.44C158.481 85.2 158.341 84.94 158.221 84.66C158.141 84.38 158.061 84.1 157.981 83.82L157.921 83.4C157.961 82.64 158.241 81.98 158.761 81.42C159.401 80.7 160.101 80.24 160.861 80.04L161.461 79.86C161.701 79.78 161.781 79.64 161.701 79.44C161.661 79.24 161.621 79.04 161.581 78.84C161.541 78.6 161.501 78.38 161.461 78.18C161.421 77.78 161.381 77.4 161.341 77.04C161.341 76.64 161.301 76.24 161.221 75.84C161.221 75.84 161.221 75.74 161.221 75.54C161.181 75.1 161.121 74.66 161.041 74.22C161.001 73.74 160.941 73.26 160.861 72.78C160.781 72.38 160.621 72.06 160.381 71.82C160.061 71.5 159.701 71.34 159.301 71.34C158.941 71.42 158.681 71.52 158.521 71.64C158.121 71.92 157.741 72.2 157.381 72.48C157.021 72.72 156.621 72.94 156.181 73.14C155.901 73.3 155.701 73.48 155.581 73.68C155.461 73.96 155.321 74.24 155.161 74.52C155.041 74.76 154.941 75.04 154.861 75.36C154.821 75.56 154.761 75.78 154.681 76.02C154.601 76.22 154.521 76.42 154.441 76.62C154.441 76.7 154.421 76.78 154.381 76.86C154.341 76.94 154.301 77.02 154.261 77.1C154.141 77.38 154.041 77.64 153.961 77.88C153.881 78.16 153.801 78.44 153.721 78.72C153.641 79 153.561 79.3 153.481 79.62C153.401 79.9 153.321 80.24 153.241 80.64C153.161 81.04 153.081 81.44 153.001 81.84C152.921 82.24 152.841 82.64 152.761 83.04C152.721 83.2 152.681 83.36 152.641 83.52C152.641 83.64 152.641 83.8 152.641 84C152.641 84.16 152.641 84.34 152.641 84.54C152.641 84.74 152.601 84.94 152.521 85.14C152.521 85.26 152.501 85.4 152.461 85.56C152.461 85.68 152.461 85.8 152.461 85.92C152.461 86.04 152.461 86.16 152.461 86.28C152.501 86.4 152.521 86.56 152.521 86.76C152.481 87.04 152.481 87.38 152.521 87.78C152.561 88.14 152.601 88.5 152.641 88.86L152.761 89.34C152.841 89.58 152.941 89.84 153.061 90.12C153.181 90.36 153.321 90.58 153.481 90.78C153.881 91.22 154.261 91.58 154.621 91.86C154.981 92.14 155.221 92.32 155.341 92.4C155.501 92.44 155.821 92.46 156.301 92.46C156.661 92.46 157.021 92.52 157.381 92.64C157.541 92.68 157.741 92.78 157.981 92.94ZM201.589 103.74C201.029 103.86 200.509 103.78 200.029 103.5C199.749 103.34 199.469 103.2 199.189 103.08C198.909 103 198.609 102.94 198.289 102.9C197.889 102.82 197.489 102.72 197.089 102.6C196.729 102.52 196.349 102.4 195.949 102.24C195.789 102.16 195.629 102.08 195.469 102C195.349 101.92 195.209 101.82 195.049 101.7C194.929 101.54 194.769 101.44 194.569 101.4C194.289 101.28 193.989 101.08 193.669 100.8C193.589 100.72 193.529 100.64 193.489 100.56C193.329 100.4 193.149 100.26 192.949 100.14C192.789 100.02 192.609 99.9 192.409 99.78C191.889 99.46 191.309 99.08 190.669 98.64C190.549 98.56 190.449 98.46 190.369 98.34C190.209 98.14 190.009 97.96 189.769 97.8C189.569 97.64 189.369 97.48 189.169 97.32L187.549 96.24C187.509 96.2 187.449 96.18 187.369 96.18C187.289 96.14 187.209 96.1 187.129 96.06C186.609 95.82 186.189 95.48 185.869 95.04C185.549 94.64 185.249 94.22 184.969 93.78C184.689 93.34 184.429 92.92 184.189 92.52C184.109 92.44 184.029 92.32 183.949 92.16C183.789 91.96 183.649 91.74 183.529 91.5C183.409 91.26 183.309 91.04 183.229 90.84C183.149 90.64 183.069 90.42 182.989 90.18L182.809 89.28C182.689 88.96 182.609 88.64 182.569 88.32C182.529 87.96 182.469 87.62 182.389 87.3C182.349 87.06 182.289 86.82 182.209 86.58C182.129 86.3 182.029 86.04 181.909 85.8C181.829 85.68 181.769 85.56 181.729 85.44C181.689 85.28 181.629 85.12 181.549 84.96C181.509 84.88 181.489 84.74 181.489 84.54C181.449 84.22 181.429 83.9 181.429 83.58C181.469 83.26 181.549 82.96 181.669 82.68L181.849 82.02C181.929 81.82 181.989 81.62 182.029 81.42C182.069 81.22 182.109 81.04 182.149 80.88C182.149 80.6 182.109 80.4 182.029 80.28C181.989 80.2 181.949 80.12 181.909 80.04C181.869 79.92 181.829 79.82 181.789 79.74C181.589 79.34 181.569 78.98 181.729 78.66L181.909 78.18C182.029 77.98 182.089 77.78 182.089 77.58C182.089 76.94 182.289 76.28 182.689 75.6C182.969 75.12 183.249 74.74 183.529 74.46C183.769 74.22 183.949 73.98 184.069 73.74C184.229 73.42 184.449 73.12 184.729 72.84C185.089 72.48 185.309 72.16 185.389 71.88C185.469 71.68 185.569 71.52 185.689 71.4L186.649 70.44C186.929 70.08 186.929 69.74 186.649 69.42C186.529 69.26 186.429 69.1 186.349 68.94C186.309 68.74 186.249 68.56 186.169 68.4C186.049 67.72 186.189 67.12 186.589 66.6C186.749 66.4 186.909 66.22 187.069 66.06C187.269 65.9 187.489 65.78 187.729 65.7C187.849 65.66 187.949 65.62 188.029 65.58C188.149 65.54 188.269 65.5 188.389 65.46C188.589 65.42 188.789 65.36 188.989 65.28C189.229 65.2 189.449 65.12 189.649 65.04C189.809 64.96 189.949 64.9 190.069 64.86C190.189 64.82 190.329 64.8 190.489 64.8C190.649 64.76 190.789 64.74 190.909 64.74C191.029 64.7 191.149 64.68 191.269 64.68C191.589 64.64 191.909 64.48 192.229 64.2C192.789 63.76 193.349 63.32 193.909 62.88C194.509 62.4 195.069 61.92 195.589 61.44C195.909 61.16 196.249 60.9 196.609 60.66C197.009 60.42 197.409 60.2 197.809 60C198.089 59.88 198.389 59.78 198.709 59.7C198.909 59.62 199.129 59.56 199.369 59.52C199.609 59.48 199.829 59.44 200.029 59.4L201.289 59.22C201.849 59.18 202.369 59.12 202.849 59.04C203.369 58.96 203.889 58.88 204.409 58.8C204.489 58.8 204.569 58.8 204.649 58.8C204.729 58.76 204.789 58.74 204.829 58.74H205.609C205.889 58.74 206.149 58.76 206.389 58.8C206.629 58.8 206.869 58.84 207.109 58.92C207.429 59.04 207.709 59.2 207.949 59.4C208.189 59.56 208.389 59.8 208.549 60.12C208.829 60.52 208.989 60.9 209.029 61.26C209.069 61.5 209.089 61.74 209.089 61.98C209.129 62.22 209.149 62.46 209.149 62.7V63.24C209.149 63.36 209.209 63.46 209.329 63.54L209.689 63.72C210.249 63.92 210.789 64.18 211.309 64.5C211.829 64.82 212.329 65.16 212.809 65.52C213.129 65.72 213.369 65.92 213.529 66.12C213.809 66.4 214.069 66.68 214.309 66.96C214.549 67.2 214.789 67.46 215.029 67.74C215.189 67.94 215.349 68.14 215.509 68.34C215.669 68.5 215.829 68.68 215.989 68.88C216.109 69 216.189 69.1 216.229 69.18C216.309 69.42 216.449 69.66 216.649 69.9C216.889 70.3 217.089 70.7 217.249 71.1C217.369 71.42 217.489 71.76 217.609 72.12C217.729 72.44 217.829 72.78 217.909 73.14C217.909 73.26 217.949 73.44 218.029 73.68C218.069 73.8 218.089 73.92 218.089 74.04C218.129 74.12 218.149 74.2 218.149 74.28C218.189 74.52 218.229 74.76 218.269 75C218.349 75.24 218.409 75.48 218.449 75.72C218.489 75.92 218.529 76.14 218.569 76.38C218.609 76.58 218.649 76.8 218.689 77.04C218.729 77.4 218.789 77.78 218.869 78.18C218.949 78.54 219.009 78.9 219.049 79.26V79.56C219.049 80 219.069 80.46 219.109 80.94C219.189 81.38 219.229 81.82 219.229 82.26C219.229 82.42 219.229 82.6 219.229 82.8C219.229 83 219.209 83.2 219.169 83.4C219.129 83.48 219.109 83.58 219.109 83.7C219.109 84.18 219.069 84.66 218.989 85.14C218.909 85.58 218.829 86.02 218.749 86.46C218.469 88.02 218.049 89.6 217.489 91.2C217.449 91.36 217.409 91.54 217.369 91.74C217.329 91.9 217.269 92.08 217.189 92.28L216.289 94.92C216.249 95.08 216.169 95.26 216.049 95.46C215.969 95.62 215.889 95.8 215.809 96L214.729 97.92C214.489 98.36 214.189 98.78 213.829 99.18C213.509 99.54 213.109 99.86 212.629 100.14C212.149 100.42 211.709 100.8 211.309 101.28C211.029 101.68 210.589 101.92 209.989 102C209.709 102.04 209.429 102.06 209.149 102.06C208.909 102.1 208.669 102.16 208.429 102.24L207.829 102.42C207.789 102.42 207.749 102.42 207.709 102.42C207.709 102.46 207.669 102.48 207.589 102.48C207.149 102.56 206.689 102.66 206.209 102.78C205.769 102.9 205.329 103 204.889 103.08C204.809 103.12 204.689 103.14 204.529 103.14C204.289 103.14 204.049 103.16 203.809 103.2C203.569 103.24 203.329 103.3 203.089 103.38L201.589 103.74ZM199.969 97.5C200.209 97.54 200.429 97.52 200.629 97.44C200.789 97.36 200.949 97.34 201.109 97.38H201.589C201.789 97.38 201.969 97.38 202.129 97.38C202.289 97.38 202.449 97.34 202.609 97.26C202.729 97.18 202.949 97.12 203.269 97.08C203.629 97 203.809 96.96 203.809 96.96C204.129 96.88 204.449 96.8 204.769 96.72C205.089 96.6 205.409 96.46 205.729 96.3L208.249 95.22C208.569 95.1 208.869 94.96 209.149 94.8C209.429 94.6 209.709 94.42 209.989 94.26C210.189 94.06 210.369 93.92 210.529 93.84C210.769 93.64 210.949 93.4 211.069 93.12C211.149 92.92 211.229 92.72 211.309 92.52C211.389 92.32 211.449 92.12 211.489 91.92C211.649 91.48 211.789 91.04 211.909 90.6C212.029 90.12 212.169 89.66 212.329 89.22C212.529 88.62 212.709 88.04 212.869 87.48C213.069 86.88 213.229 86.26 213.349 85.62C213.389 85.42 213.429 85.2 213.469 84.96C213.509 84.72 213.549 84.48 213.589 84.24C213.629 83.96 213.649 83.68 213.649 83.4C213.649 83.12 213.669 82.84 213.709 82.56V82.14C213.709 81.86 213.689 81.58 213.649 81.3C213.649 81.02 213.649 80.74 213.649 80.46C213.609 79.74 213.529 79.02 213.409 78.3C213.289 77.58 213.149 76.86 212.989 76.14C212.909 75.82 212.829 75.52 212.749 75.24C212.709 74.92 212.649 74.62 212.569 74.34C212.449 73.78 212.269 73.26 212.029 72.78C211.789 72.26 211.509 71.76 211.189 71.28C211.149 71.16 211.089 71.1 211.009 71.1C210.729 70.78 210.429 70.46 210.109 70.14C209.789 69.82 209.409 69.58 208.969 69.42C208.809 69.38 208.649 69.3 208.489 69.18C208.329 69.1 208.169 69.02 208.009 68.94C207.849 68.86 207.669 68.8 207.469 68.76C206.789 68.6 206.049 68.48 205.249 68.4C205.209 68.36 205.149 68.36 205.069 68.4C204.989 68.44 204.949 68.5 204.949 68.58C204.949 68.66 204.929 68.76 204.889 68.88C204.889 68.96 204.889 69.04 204.889 69.12C204.849 69.6 204.809 70.1 204.769 70.62C204.729 71.1 204.729 71.6 204.769 72.12C204.769 72.32 204.769 72.54 204.769 72.78C204.769 72.98 204.749 73.18 204.709 73.38V74.22C204.669 74.38 204.649 74.56 204.649 74.76C204.649 74.92 204.629 75.08 204.589 75.24V75.6C204.549 75.88 204.529 76.16 204.529 76.44C204.529 76.68 204.489 76.96 204.409 77.28C204.369 77.36 204.349 77.48 204.349 77.64C204.429 78.04 204.429 78.46 204.349 78.9V79.98C204.309 80.26 204.249 80.56 204.169 80.88C204.089 81.16 203.889 81.4 203.569 81.6C203.489 81.64 203.349 81.64 203.149 81.6C202.949 81.56 202.809 81.52 202.729 81.48C202.449 81.36 202.269 81.2 202.189 81C202.149 80.88 202.089 80.76 202.009 80.64C201.969 80.52 201.949 80.4 201.949 80.28C201.909 79.96 201.849 79.64 201.769 79.32C201.729 78.96 201.709 78.6 201.709 78.24C201.709 77.84 201.709 77.44 201.709 77.04C201.709 76.64 201.689 76.24 201.649 75.84V74.88C201.689 74.72 201.709 74.56 201.709 74.4C201.709 74.2 201.709 74.02 201.709 73.86C201.709 73.54 201.689 73.22 201.649 72.9C201.649 72.58 201.649 72.26 201.649 71.94C201.649 71.7 201.629 71.48 201.589 71.28C201.589 71.04 201.569 70.8 201.529 70.56C201.489 70.4 201.449 70.26 201.409 70.14C201.369 70.02 201.309 69.9 201.229 69.78C201.109 69.42 200.869 69.14 200.509 68.94C200.269 68.74 200.009 68.74 199.729 68.94C199.569 69.06 199.409 69.18 199.249 69.3C199.129 69.38 198.989 69.5 198.829 69.66L198.589 69.9C198.349 70.02 198.129 70.18 197.929 70.38C197.769 70.54 197.589 70.72 197.389 70.92C197.269 71.04 197.149 71.16 197.029 71.28C196.909 71.36 196.769 71.44 196.609 71.52C196.369 71.68 196.209 71.8 196.129 71.88C195.929 72.04 195.729 72.2 195.529 72.36C195.329 72.48 195.129 72.64 194.929 72.84C194.849 72.92 194.769 72.98 194.689 73.02C194.609 73.06 194.529 73.12 194.449 73.2C194.369 73.28 194.289 73.36 194.209 73.44C193.929 73.72 193.629 74.02 193.309 74.34C193.029 74.66 192.729 74.96 192.409 75.24C192.209 75.44 192.009 75.66 191.809 75.9C191.609 76.1 191.429 76.32 191.269 76.56C191.229 76.68 191.129 76.82 190.969 76.98L190.549 77.52C190.269 77.96 190.029 78.42 189.829 78.9C189.629 79.38 189.449 79.88 189.289 80.4C189.169 80.76 189.109 81.12 189.109 81.48C189.069 81.84 189.049 82.22 189.049 82.62C189.049 82.98 189.089 83.36 189.169 83.76C189.169 83.84 189.169 83.94 189.169 84.06C189.209 84.14 189.209 84.22 189.169 84.3C189.169 84.62 189.189 84.94 189.229 85.26C189.269 85.54 189.289 85.84 189.289 86.16C189.329 86.24 189.349 86.34 189.349 86.46C189.389 86.54 189.429 86.62 189.469 86.7C189.549 86.82 189.629 86.94 189.709 87.06C189.789 87.18 189.829 87.32 189.829 87.48C189.829 87.52 189.869 87.58 189.949 87.66C190.029 87.82 190.069 87.94 190.069 88.02C190.229 88.3 190.329 88.56 190.369 88.8C190.449 89.08 190.569 89.3 190.729 89.46L191.029 89.82C191.029 89.94 191.069 90.06 191.149 90.18C191.229 90.26 191.289 90.34 191.329 90.42C191.489 90.58 191.569 90.74 191.569 90.9C191.649 91.18 191.769 91.4 191.929 91.56C192.009 91.64 192.089 91.72 192.169 91.8C192.249 91.88 192.309 91.96 192.349 92.04C192.549 92.24 192.649 92.44 192.649 92.64C192.649 92.76 192.669 92.84 192.709 92.88C192.829 92.92 192.909 93 192.949 93.12C192.989 93.24 193.029 93.34 193.069 93.42C193.069 93.46 193.069 93.48 193.069 93.48C193.109 93.48 193.129 93.5 193.129 93.54C193.129 93.62 193.309 93.78 193.669 94.02C194.029 94.26 194.229 94.36 194.269 94.32L194.389 94.2C194.429 94.2 194.449 94.22 194.449 94.26H194.509C194.789 94.46 194.889 94.7 194.809 94.98C194.729 94.98 194.749 95.04 194.869 95.16L195.049 95.28L195.109 95.34C195.269 95.54 195.509 95.74 195.829 95.94C195.909 95.98 196.009 96 196.129 96L196.369 95.94C196.729 95.86 197.009 96.02 197.209 96.42C197.209 96.5 197.269 96.6 197.389 96.72C197.669 96.88 197.949 97 198.229 97.08C198.549 97.16 198.849 97.24 199.129 97.32C199.289 97.36 199.429 97.4 199.549 97.44C199.669 97.44 199.809 97.46 199.969 97.5ZM261.027 120.48C260.587 120.56 260.307 120.44 260.187 120.12C260.147 120.04 260.107 119.94 260.067 119.82C260.027 119.7 259.967 119.6 259.887 119.52C259.847 119.32 259.807 119.12 259.767 118.92C259.727 118.72 259.687 118.52 259.647 118.32C259.607 118.16 259.567 118 259.527 117.84C259.527 117.68 259.527 117.52 259.527 117.36C259.487 117 259.447 116.64 259.407 116.28C259.367 115.96 259.327 115.62 259.287 115.26C259.287 115.18 259.267 115.1 259.227 115.02C259.227 114.94 259.227 114.86 259.227 114.78C259.227 114.26 259.207 113.74 259.167 113.22C259.167 112.7 259.147 112.18 259.107 111.66C259.067 111.54 259.047 111.4 259.047 111.24C259.047 111.12 259.047 111 259.047 110.88V110.46C259.007 109.9 258.967 109.34 258.927 108.78C258.927 108.22 258.927 107.66 258.927 107.1C258.927 106.66 258.887 106.2 258.807 105.72C258.767 105.28 258.707 104.86 258.627 104.46C258.507 103.98 258.327 103.56 258.087 103.2C257.887 102.84 257.707 102.46 257.547 102.06C257.387 101.7 257.227 101.32 257.067 100.92C257.027 100.76 256.947 100.62 256.827 100.5C256.747 100.38 256.667 100.26 256.587 100.14C256.067 99.5 255.547 98.86 255.027 98.22C254.507 97.58 253.987 96.92 253.467 96.24L251.847 94.14L250.287 92.16C249.967 91.72 249.627 91.3 249.267 90.9C248.947 90.46 248.627 90.02 248.307 89.58C247.827 88.9 247.327 88.24 246.807 87.6C246.287 86.92 245.747 86.26 245.187 85.62C243.907 83.94 242.627 82.36 241.347 80.88C241.187 80.64 241.027 80.42 240.867 80.22C240.707 79.98 240.547 79.74 240.387 79.5C240.227 79.3 240.067 79.1 239.907 78.9C239.747 78.66 239.567 78.44 239.367 78.24C239.247 78.08 239.127 77.94 239.007 77.82C238.887 77.7 238.787 77.56 238.707 77.4L236.187 74.52C236.067 74.36 235.947 74.22 235.827 74.1C235.707 73.98 235.587 73.86 235.467 73.74C235.067 73.3 234.647 72.86 234.207 72.42C233.807 71.94 233.387 71.5 232.947 71.1C232.787 70.9 232.627 70.72 232.467 70.56C232.307 70.4 232.107 70.26 231.867 70.14C231.867 70.14 231.847 70.14 231.807 70.14C231.767 70.14 231.727 70.16 231.687 70.2V70.38C231.647 70.46 231.627 70.58 231.627 70.74C231.627 71.06 231.627 71.38 231.627 71.7C231.627 71.98 231.607 72.28 231.567 72.6C231.527 72.76 231.507 72.92 231.507 73.08C231.547 73.2 231.547 73.32 231.507 73.44V76.26C231.507 76.38 231.507 76.52 231.507 76.68C231.507 76.8 231.487 76.94 231.447 77.1C231.407 77.34 231.387 77.58 231.387 77.82C231.387 78.06 231.387 78.32 231.387 78.6V80.16C231.387 80.52 231.367 80.88 231.327 81.24C231.327 81.6 231.307 81.96 231.267 82.32C231.227 82.8 231.207 83.28 231.207 83.76C231.207 84.24 231.207 84.72 231.207 85.2C231.207 85.56 231.207 85.92 231.207 86.28C231.207 86.6 231.167 86.92 231.087 87.24V87.84C231.087 88.16 231.087 88.5 231.087 88.86C231.087 89.22 231.067 89.56 231.027 89.88C231.027 90.08 231.027 90.3 231.027 90.54C231.027 90.74 231.007 90.94 230.967 91.14C230.927 91.42 230.927 91.72 230.967 92.04C230.967 92.4 230.967 92.76 230.967 93.12C231.007 93.48 231.047 93.82 231.087 94.14L231.267 95.34C231.347 95.86 231.447 96.38 231.567 96.9C231.687 97.38 231.807 97.88 231.927 98.4C231.967 98.52 232.007 98.66 232.047 98.82C232.087 98.94 232.127 99.06 232.167 99.18C232.287 99.46 232.327 99.74 232.287 100.02C232.287 100.26 232.267 100.52 232.227 100.8C232.187 100.92 232.087 101.1 231.927 101.34C231.847 101.5 231.747 101.66 231.627 101.82C231.547 101.94 231.447 102.06 231.327 102.18C231.167 102.42 231.067 102.6 231.027 102.72C231.027 102.84 230.987 102.98 230.907 103.14V103.38C230.747 104.02 230.307 104.34 229.587 104.34C229.347 104.38 229.107 104.24 228.867 103.92C228.867 103.88 228.847 103.84 228.807 103.8C228.807 103.76 228.807 103.72 228.807 103.68C228.767 103.36 228.647 103.08 228.447 102.84C228.287 102.64 228.127 102.44 227.967 102.24C227.887 102.12 227.787 102.02 227.667 101.94C227.587 101.82 227.507 101.72 227.427 101.64C227.267 101.4 227.167 101.2 227.127 101.04L226.887 100.44C226.727 100 226.587 99.58 226.467 99.18C226.347 98.78 226.247 98.38 226.167 97.98C226.167 97.9 226.147 97.84 226.107 97.8C225.987 97.36 225.887 96.9 225.807 96.42C225.767 95.94 225.707 95.46 225.627 94.98C225.627 94.74 225.607 94.54 225.567 94.38C225.527 93.82 225.507 93.28 225.507 92.76C225.547 92.2 225.567 91.66 225.567 91.14V88.98C225.567 88.66 225.567 88.36 225.567 88.08C225.607 87.76 225.647 87.46 225.687 87.18C225.727 86.98 225.747 86.8 225.747 86.64C225.747 86.44 225.747 86.26 225.747 86.1C225.747 85.9 225.747 85.7 225.747 85.5C225.747 85.3 225.767 85.1 225.807 84.9C225.847 84.58 225.867 84.26 225.867 83.94C225.867 83.62 225.867 83.32 225.867 83.04C225.907 82.76 225.907 82.5 225.867 82.26C225.867 81.98 225.867 81.7 225.867 81.42C225.907 81.1 225.927 80.78 225.927 80.46C225.927 80.1 225.927 79.74 225.927 79.38C225.967 78.9 225.987 78.42 225.987 77.94C225.987 77.46 225.987 76.98 225.987 76.5C226.027 76.1 226.047 75.72 226.047 75.36C226.047 74.96 226.067 74.56 226.107 74.16C226.147 74.04 226.167 73.86 226.167 73.62V67.98C226.087 67.46 226.027 66.96 225.987 66.48C225.987 65.96 225.987 65.44 225.987 64.92C225.987 64.64 225.927 64.36 225.807 64.08C225.807 64 225.767 63.88 225.687 63.72C225.367 62.92 225.387 62.08 225.747 61.2C226.067 60.48 226.687 59.96 227.607 59.64C228.127 59.48 228.707 59.5 229.347 59.7C229.507 59.74 229.647 59.8 229.767 59.88C229.927 59.96 230.047 60.06 230.127 60.18C230.207 60.26 230.247 60.32 230.247 60.36C230.687 60.88 231.167 61.36 231.687 61.8C231.967 62.08 232.227 62.36 232.467 62.64C232.747 62.88 233.027 63.16 233.307 63.48L234.867 65.1C235.227 65.46 235.567 65.82 235.887 66.18C236.247 66.5 236.587 66.86 236.907 67.26L237.327 67.68C237.767 68.16 238.207 68.64 238.647 69.12C239.127 69.6 239.567 70.1 239.967 70.62C240.207 70.9 240.447 71.18 240.687 71.46C240.927 71.7 241.167 71.98 241.407 72.3L242.787 73.92C243.547 74.88 244.287 75.86 245.007 76.86C245.727 77.82 246.467 78.78 247.227 79.74C247.547 80.14 247.847 80.54 248.127 80.94C248.447 81.34 248.747 81.74 249.027 82.14L249.447 82.68C249.647 83 249.867 83.32 250.107 83.64C250.347 83.92 250.587 84.22 250.827 84.54C251.147 84.94 251.467 85.34 251.787 85.74C252.107 86.1 252.407 86.46 252.687 86.82C252.967 87.1 253.227 87.42 253.467 87.78C254.147 88.54 254.787 89.3 255.387 90.06C255.467 90.1 255.527 90.1 255.567 90.06V90C255.567 89.84 255.567 89.68 255.567 89.52C255.607 89.32 255.627 89.14 255.627 88.98C255.587 88.78 255.567 88.62 255.567 88.5C255.567 88.34 255.567 88.18 255.567 88.02C255.567 87.74 255.567 87.48 255.567 87.24C255.567 86.96 255.547 86.68 255.507 86.4V85.56C255.467 85.24 255.447 84.94 255.447 84.66C255.447 84.34 255.447 84.04 255.447 83.76V83.64C255.407 83.2 255.367 82.76 255.327 82.32C255.327 81.84 255.307 81.38 255.267 80.94C255.267 80.66 255.247 80.4 255.207 80.16C255.167 79.92 255.127 79.68 255.087 79.44C255.087 79.32 255.067 79.2 255.027 79.08C255.027 78.92 255.027 78.78 255.027 78.66C254.987 78.22 254.967 77.8 254.967 77.4C254.967 77 254.947 76.6 254.907 76.2C254.867 75.56 254.807 74.92 254.727 74.28C254.687 73.64 254.667 73 254.667 72.36C254.707 71.48 254.707 70.62 254.667 69.78C254.667 68.94 254.667 68.08 254.667 67.2V66.12C254.667 66 254.647 65.92 254.607 65.88C254.567 65.56 254.547 65.26 254.547 64.98C254.547 64.7 254.547 64.42 254.547 64.14V63.54C254.547 63.18 254.527 62.82 254.487 62.46C254.447 62.1 254.367 61.76 254.247 61.44V61.32C254.087 60.92 254.107 60.48 254.307 60C254.427 59.6 254.607 59.26 254.847 58.98C255.087 58.66 255.347 58.36 255.627 58.08L256.047 57.9C256.687 57.66 257.307 57.64 257.907 57.84L258.807 58.38C258.887 58.42 258.947 58.5 258.987 58.62C259.067 58.7 259.127 58.78 259.167 58.86C259.567 59.46 259.767 60.06 259.767 60.66C259.767 60.82 259.767 61 259.767 61.2C259.807 61.36 259.827 61.54 259.827 61.74C259.827 61.9 259.807 62.06 259.767 62.22C259.727 62.38 259.707 62.54 259.707 62.7C259.747 63.26 259.747 63.84 259.707 64.44C259.707 65 259.707 65.56 259.707 66.12C259.707 66.4 259.707 66.68 259.707 66.96C259.747 67.24 259.767 67.54 259.767 67.86C259.767 68.02 259.767 68.2 259.767 68.4C259.767 68.56 259.787 68.74 259.827 68.94C259.867 69.1 259.887 69.3 259.887 69.54V70.92C259.887 71.12 259.887 71.32 259.887 71.52C259.887 71.72 259.907 71.92 259.947 72.12C259.987 72.32 260.007 72.54 260.007 72.78C260.007 72.98 260.027 73.18 260.067 73.38C260.067 73.54 260.067 73.7 260.067 73.86C260.067 73.98 260.087 74.12 260.127 74.28C260.127 74.36 260.127 74.44 260.127 74.52C260.167 74.6 260.187 74.68 260.187 74.76C260.187 75 260.187 75.24 260.187 75.48C260.227 75.72 260.267 75.96 260.307 76.2C260.307 76.64 260.327 77.1 260.367 77.58C260.447 78.06 260.487 78.54 260.487 79.02C260.487 79.18 260.487 79.34 260.487 79.5C260.527 79.62 260.567 79.76 260.607 79.92V80.22C260.607 80.66 260.627 81.1 260.667 81.54C260.747 81.98 260.787 82.42 260.787 82.86V83.1C260.867 83.5 260.907 83.9 260.907 84.3C260.907 84.7 260.927 85.12 260.967 85.56C260.967 85.72 260.967 85.88 260.967 86.04C260.967 86.2 260.987 86.36 261.027 86.52C261.027 86.56 261.027 86.62 261.027 86.7C261.067 86.74 261.087 86.78 261.087 86.82C261.087 87.22 261.107 87.6 261.147 87.96C261.187 88.32 261.227 88.68 261.267 89.04L261.447 90.36L261.507 90.78C261.547 91.22 261.587 91.66 261.627 92.1C261.707 92.54 261.767 92.98 261.807 93.42L261.987 95.1C262.067 95.62 262.167 96.14 262.287 96.66C262.407 97.18 262.607 97.68 262.887 98.16C263.007 98.4 263.087 98.66 263.127 98.94C263.207 99.18 263.267 99.42 263.307 99.66V100.14C263.267 100.26 263.247 100.44 263.247 100.68C263.207 101.16 263.087 101.64 262.887 102.12C262.807 102.36 262.727 102.6 262.647 102.84C262.567 103.08 262.487 103.32 262.407 103.56C262.367 103.72 262.347 103.86 262.347 103.98C262.347 104.14 262.327 104.3 262.287 104.46C262.167 105.18 262.107 105.9 262.107 106.62V108.42C262.147 108.94 262.167 109.46 262.167 109.98C262.167 110.5 262.167 111.02 262.167 111.54V112.74C262.167 112.94 262.167 113.14 262.167 113.34C262.167 113.58 262.187 113.8 262.227 114C262.267 114.08 262.267 114.18 262.227 114.3C262.227 114.42 262.227 114.52 262.227 114.6C262.187 114.8 262.167 115 262.167 115.2C262.167 115.44 262.167 115.66 262.167 115.86V118.2C262.167 118.64 262.107 119.1 261.987 119.58C261.867 120.06 261.547 120.36 261.027 120.48ZM279.733 110.22C279.173 110.46 278.713 110.28 278.353 109.68C278.153 109.4 278.013 109.02 277.933 108.54C277.893 108.18 277.833 107.82 277.753 107.46C277.673 107.1 277.593 106.72 277.513 106.32C277.473 106.16 277.413 106 277.333 105.84C277.293 105.68 277.233 105.52 277.153 105.36C277.033 105.12 276.913 104.88 276.793 104.64C276.673 104.4 276.533 104.18 276.373 103.98C276.213 103.66 276.113 103.44 276.073 103.32L275.773 102.66C275.533 102.1 275.413 101.52 275.413 100.92C275.373 100.64 275.353 100.36 275.353 100.08C275.393 99.8 275.433 99.52 275.473 99.24C275.593 98.52 275.573 97.86 275.413 97.26L274.873 94.56C274.833 94.32 274.793 94.08 274.753 93.84C274.713 93.56 274.673 93.28 274.633 93L274.453 92.16C274.413 91.8 274.373 91.44 274.333 91.08C274.293 90.72 274.253 90.38 274.213 90.06C274.173 89.94 274.153 89.82 274.153 89.7C274.153 89.58 274.153 89.46 274.153 89.34C274.153 88.9 274.013 88.52 273.733 88.2C273.573 88 273.413 87.8 273.253 87.6C273.133 87.36 273.033 87.14 272.953 86.94C272.793 86.7 272.633 86.48 272.473 86.28C272.353 86.04 272.233 85.8 272.113 85.56C271.993 85.32 271.793 85.18 271.513 85.14C271.273 85.1 271.053 85 270.853 84.84C270.573 84.6 270.313 84.34 270.073 84.06C269.993 83.9 269.913 83.78 269.833 83.7C269.713 83.54 269.673 83.38 269.713 83.22C269.793 83.1 269.793 82.98 269.713 82.86C269.593 82.66 269.553 82.48 269.593 82.32C269.633 82.16 269.673 82 269.713 81.84C269.713 81.68 269.753 81.54 269.833 81.42C269.913 81.3 269.993 81.18 270.073 81.06C270.233 80.82 270.413 80.62 270.613 80.46C270.853 80.26 271.093 80.08 271.333 79.92C271.493 79.84 271.613 79.76 271.693 79.68C271.893 79.6 271.953 79.48 271.873 79.32V79.14C271.793 78.7 271.713 78.28 271.633 77.88C271.553 77.48 271.453 77.08 271.333 76.68C271.293 76.48 271.233 76.28 271.153 76.08C271.113 75.88 271.053 75.68 270.973 75.48C270.933 75.44 270.913 75.36 270.913 75.24C270.913 75.04 270.893 74.84 270.853 74.64C270.813 74.44 270.773 74.26 270.733 74.1C270.613 73.14 270.433 72.18 270.193 71.22C270.153 70.94 270.053 70.66 269.893 70.38C269.733 70.02 269.633 69.7 269.593 69.42C269.473 68.98 269.353 68.56 269.233 68.16C269.113 67.72 269.013 67.3 268.933 66.9C268.813 66.5 268.713 66.1 268.633 65.7C268.593 65.3 268.553 64.9 268.513 64.5C268.473 63.54 268.813 62.76 269.533 62.16L269.713 61.98C270.033 61.7 270.353 61.52 270.673 61.44C271.033 61.32 271.413 61.26 271.813 61.26C272.173 61.3 272.493 61.28 272.773 61.2C273.093 61.08 273.393 60.94 273.673 60.78C273.753 60.74 273.873 60.72 274.033 60.72H274.213C274.333 60.72 274.433 60.74 274.513 60.78C274.633 60.86 274.773 60.82 274.933 60.66C274.973 60.62 275.033 60.64 275.113 60.72C275.193 60.84 275.293 60.9 275.413 60.9C275.493 60.94 275.573 60.96 275.653 60.96C275.773 60.96 275.893 61 276.013 61.08C276.093 61.12 276.173 61.18 276.253 61.26C276.373 61.34 276.453 61.46 276.493 61.62L276.673 61.8C276.793 61.84 276.893 61.94 276.973 62.1C277.013 62.26 277.153 62.34 277.393 62.34C277.513 62.34 277.693 62.3 277.933 62.22C278.373 62.14 278.793 62.06 279.193 61.98C279.633 61.9 280.053 61.84 280.453 61.8C280.573 61.76 280.713 61.74 280.873 61.74C281.673 61.7 282.473 61.62 283.273 61.5C284.073 61.38 284.853 61.24 285.613 61.08L285.913 60.96C286.713 60.84 287.473 60.6 288.193 60.24C288.473 60.08 288.773 59.94 289.093 59.82C289.413 59.7 289.713 59.58 289.993 59.46L292.033 58.74C292.313 58.66 292.493 58.58 292.573 58.5C292.813 58.3 293.033 58.16 293.233 58.08C293.753 57.76 294.333 57.56 294.973 57.48C295.333 57.48 295.693 57.54 296.053 57.66C296.613 57.9 297.133 58.28 297.613 58.8C297.733 59 297.773 59.22 297.733 59.46C297.613 59.7 297.613 59.96 297.733 60.24C297.773 60.48 297.773 60.68 297.733 60.84C297.693 61 297.673 61.16 297.673 61.32C297.673 61.48 297.653 61.64 297.613 61.8C297.613 62 297.553 62.16 297.433 62.28C297.153 62.68 296.873 62.98 296.593 63.18C296.553 63.22 296.513 63.26 296.473 63.3C296.473 63.34 296.433 63.4 296.353 63.48C296.313 63.52 296.273 63.56 296.233 63.6C296.233 63.64 296.193 63.7 296.113 63.78C295.913 63.94 295.733 64.12 295.573 64.32C295.453 64.52 295.313 64.72 295.153 64.92C294.993 65.2 294.793 65.48 294.553 65.76C294.353 66 294.113 66.22 293.833 66.42L293.353 66.96C293.113 67.28 292.973 67.58 292.933 67.86C292.853 68.22 292.773 68.58 292.693 68.94C292.653 69.26 292.633 69.6 292.633 69.96L292.453 71.22C292.453 71.38 292.413 71.54 292.333 71.7C292.173 72.1 291.853 72.3 291.373 72.3C291.333 72.34 291.273 72.36 291.193 72.36C291.153 72.32 291.113 72.3 291.073 72.3C290.713 72.1 290.473 71.84 290.353 71.52C290.193 71 290.073 70.42 289.993 69.78C289.993 69.58 289.973 69.38 289.933 69.18C289.933 68.94 289.913 68.72 289.873 68.52L289.693 68.1C289.613 67.82 289.453 67.76 289.213 67.92C289.173 67.92 289.113 67.94 289.033 67.98C288.993 68.02 288.933 68.06 288.853 68.1C288.693 68.18 288.533 68.28 288.373 68.4C288.253 68.48 288.133 68.58 288.013 68.7C287.653 68.9 287.213 69.1 286.693 69.3C285.973 69.54 285.313 69.9 284.713 70.38C284.633 70.42 284.533 70.48 284.413 70.56C284.333 70.64 284.233 70.72 284.113 70.8C283.993 70.88 283.873 70.96 283.753 71.04C283.633 71.12 283.493 71.2 283.333 71.28L282.913 71.52C282.793 71.6 282.653 71.76 282.493 72C282.453 72.2 282.393 72.42 282.313 72.66C282.273 72.86 282.253 73.08 282.253 73.32C282.253 73.68 282.233 74.04 282.193 74.4C282.193 74.76 282.213 75.12 282.253 75.48C282.253 75.68 282.253 75.9 282.253 76.14C282.253 76.34 282.213 76.54 282.133 76.74C282.053 77.02 282.153 77.12 282.433 77.04C282.633 77.04 282.793 77.02 282.913 76.98C283.353 76.9 283.793 76.84 284.233 76.8C284.713 76.72 285.153 76.64 285.553 76.56L286.873 76.38C287.073 76.34 287.233 76.3 287.353 76.26C287.513 76.22 287.673 76.16 287.833 76.08C288.073 75.92 288.313 75.82 288.553 75.78C288.793 75.74 289.033 75.7 289.273 75.66C289.793 75.54 290.313 75.64 290.833 75.96L291.613 76.5C291.773 76.66 291.853 76.82 291.853 76.98C291.933 77.26 292.033 77.4 292.153 77.4C292.273 77.36 292.353 77.36 292.393 77.4C292.513 77.56 292.613 77.74 292.693 77.94C292.813 78.1 292.893 78.28 292.933 78.48C292.933 78.64 292.873 78.74 292.753 78.78C292.593 78.78 292.473 78.84 292.393 78.96C292.313 79.08 292.233 79.2 292.153 79.32C292.113 79.36 292.093 79.4 292.093 79.44C292.133 79.48 292.153 79.52 292.153 79.56C292.233 79.68 292.233 79.82 292.153 79.98C292.113 80.06 292.073 80.16 292.033 80.28C291.993 80.36 291.953 80.44 291.913 80.52C291.753 80.88 291.513 81.18 291.193 81.42C291.033 81.58 290.893 81.7 290.773 81.78C290.453 81.98 290.153 82.34 289.873 82.86C289.833 82.94 289.793 83.04 289.753 83.16C289.713 83.24 289.653 83.34 289.573 83.46C289.453 83.62 289.273 83.74 289.033 83.82C288.633 83.9 288.313 83.88 288.073 83.76L287.713 83.58C287.473 83.5 287.273 83.52 287.113 83.64C287.073 83.68 286.973 83.74 286.813 83.82C286.453 83.98 286.053 84 285.613 83.88C285.413 83.8 285.193 83.7 284.953 83.58C284.753 83.46 284.553 83.36 284.353 83.28C284.273 83.24 284.193 83.18 284.113 83.1C283.953 82.98 283.773 82.96 283.573 83.04C283.333 83.08 283.093 83.14 282.853 83.22C282.613 83.26 282.373 83.32 282.133 83.4C281.773 83.44 281.373 83.56 280.933 83.76C280.813 83.76 280.693 83.82 280.573 83.94C280.373 84.1 280.293 84.28 280.333 84.48V84.6C280.453 84.96 280.533 85.32 280.573 85.68C280.653 86.04 280.713 86.4 280.753 86.76L281.113 89.28C281.113 89.32 281.113 89.36 281.113 89.4C281.153 89.4 281.173 89.4 281.173 89.4C281.173 89.84 281.193 90.28 281.233 90.72C281.273 91.16 281.293 91.6 281.293 92.04C281.293 92.56 281.293 93.06 281.293 93.54C281.333 94.02 281.353 94.5 281.353 94.98V95.7C281.433 95.86 281.553 95.94 281.713 95.94L282.493 95.76C282.693 95.72 282.873 95.68 283.033 95.64C283.233 95.6 283.413 95.56 283.573 95.52L284.653 95.34C284.893 95.34 285.073 95.32 285.193 95.28C285.713 95.2 286.233 95.1 286.753 94.98C287.273 94.86 287.793 94.76 288.313 94.68C288.553 94.64 288.793 94.6 289.033 94.56C289.313 94.52 289.593 94.48 289.873 94.44C290.313 94.4 290.733 94.36 291.133 94.32C291.573 94.24 291.993 94.18 292.393 94.14C292.593 94.1 292.773 94.08 292.933 94.08C293.133 94.04 293.313 94.02 293.473 94.02C293.713 93.94 293.893 93.86 294.013 93.78C294.093 93.7 294.173 93.64 294.253 93.6C294.373 93.56 294.453 93.52 294.493 93.48C294.853 93.16 295.253 93.04 295.693 93.12C295.813 93.12 295.913 93.1 295.993 93.06C296.073 93.06 296.173 93.06 296.293 93.06C296.413 93.06 296.513 93.08 296.593 93.12C296.793 93.2 296.973 93.28 297.133 93.36C297.293 93.4 297.453 93.48 297.613 93.6C297.653 93.64 297.693 93.66 297.733 93.66C298.053 93.86 298.373 93.88 298.693 93.72C298.813 93.64 298.953 93.58 299.113 93.54C299.273 93.46 299.433 93.4 299.593 93.36C299.993 93.24 300.393 93.24 300.793 93.36C300.913 93.4 301.033 93.44 301.153 93.48C301.313 93.52 301.433 93.58 301.513 93.66C301.753 93.78 301.973 93.98 302.173 94.26C302.533 94.78 302.773 95.32 302.893 95.88C302.973 96 302.973 96.12 302.893 96.24C302.853 96.36 302.813 96.48 302.773 96.6C302.733 96.68 302.693 96.78 302.653 96.9C302.613 96.98 302.573 97.08 302.533 97.2C302.493 97.28 302.453 97.36 302.413 97.44C302.413 97.6 302.333 97.72 302.173 97.8C302.013 97.84 301.893 97.96 301.813 98.16C301.733 98.32 301.633 98.36 301.513 98.28C301.353 98.28 301.253 98.3 301.213 98.34C301.013 98.5 300.793 98.62 300.553 98.7C300.313 98.78 300.073 98.86 299.833 98.94C299.393 99.02 298.953 99.14 298.513 99.3C298.073 99.42 297.633 99.54 297.193 99.66C296.953 99.74 296.773 99.78 296.653 99.78C296.413 99.82 296.173 99.88 295.933 99.96C295.733 100 295.533 100.06 295.333 100.14C295.293 100.18 295.233 100.2 295.153 100.2C295.113 100.2 295.053 100.22 294.973 100.26C294.693 100.3 294.393 100.36 294.073 100.44C293.793 100.52 293.513 100.62 293.233 100.74C293.113 100.82 292.933 100.86 292.693 100.86C292.373 100.86 292.033 100.92 291.673 101.04C291.273 101.12 290.873 101.2 290.473 101.28C290.073 101.32 289.653 101.38 289.213 101.46L287.953 101.64C287.433 101.76 286.973 101.9 286.573 102.06C286.493 102.1 286.393 102.14 286.273 102.18C286.153 102.22 286.053 102.26 285.973 102.3C285.133 102.46 284.353 102.76 283.633 103.2L283.153 103.38C282.833 103.42 282.513 103.52 282.193 103.68C281.913 103.84 281.613 104 281.293 104.16C281.053 104.32 280.893 104.44 280.813 104.52C280.733 104.6 280.653 104.72 280.573 104.88C280.373 105.36 280.273 105.78 280.273 106.14C280.313 106.42 280.333 106.68 280.333 106.92C280.333 107.2 280.353 107.5 280.393 107.82C280.473 108.3 280.453 108.74 280.333 109.14C280.333 109.3 280.293 109.5 280.213 109.74C280.053 109.98 279.893 110.14 279.733 110.22ZM279.733 77.58C279.893 77.5 279.973 77.38 279.973 77.22C279.933 77.14 279.913 77.06 279.913 76.98C279.913 76.86 279.893 76.76 279.853 76.68C279.653 76.16 279.553 75.7 279.553 75.3C279.553 75.22 279.533 75.16 279.493 75.12C279.493 75.08 279.493 75.04 279.493 75C279.413 74.92 279.373 74.88 279.373 74.88V75C279.333 75.2 279.293 75.42 279.253 75.66C279.253 75.9 279.253 76.14 279.253 76.38V77.34C279.333 77.46 279.413 77.52 279.493 77.52C279.533 77.56 279.613 77.58 279.733 77.58Z" fill="black"/>
</svg>
